{"glyphs":{"0":{"ha":638,"x_min":54,"x_max":583,"o":"m 315 -4 q 201 4 250 -4 q 120 41 153 13 q 71 124 88 69 q 54 268 54 178 l 54 674 q 71 818 54 764 q 120 901 88 872 q 201 938 153 929 q 315 946 250 946 l 325 946 q 439 938 390 946 q 519 901 488 929 q 567 818 551 872 q 583 674 583 764 l 583 268 q 567 124 583 178 q 519 41 551 69 q 439 4 488 13 q 325 -4 390 -4 l 315 -4 m 324 153 q 368 155 353 153 q 390 167 383 157 q 399 199 397 178 q 400 260 400 221 l 400 682 q 399 742 400 721 q 390 774 397 764 q 368 787 383 785 q 324 789 353 789 l 314 789 q 269 787 285 789 q 247 774 254 785 q 239 742 240 764 q 238 682 238 721 l 238 260 q 239 199 238 221 q 247 167 240 178 q 269 155 254 157 q 314 153 285 153 l 324 153 z "},"1":{"ha":1803,"x_min":-60,"x_max":1863,"o":"m -60 296 l 63 296 q 124 654 63 494 q 297 926 186 814 q 563 1100 408 1039 q 903 1161 718 1161 q 1242 1100 1088 1161 q 1508 926 1396 1039 q 1681 654 1619 814 q 1743 296 1743 494 l 1863 296 l 1863 182 l 1190 182 q 1192 157 1190 169 q 1193 135 1193 144 l 1193 107 q 1174 -152 1193 -58 q 1122 -292 1156 -246 q 1040 -348 1088 -337 q 933 -358 992 -358 l 875 -358 q 802 -354 836 -358 q 739 -335 768 -350 q 687 -290 710 -319 q 648 -209 664 -261 q 624 -80 632 -157 q 615 107 615 -3 l 615 135 q 617 157 615 144 q 618 182 618 169 l -60 182 l -60 296 m 246 296 q 278 449 257 393 q 333 532 300 504 q 406 567 365 560 q 494 574 447 574 l 556 574 q 673 555 629 574 q 743 504 717 536 q 783 426 771 471 q 798 332 794 382 q 800 228 801 282 q 799 122 799 175 l 799 94 q 799 -19 799 28 q 803 -99 800 -67 q 813 -152 807 -132 q 826 -182 818 -172 q 851 -197 836 -194 q 890 -200 867 -200 l 918 -200 q 958 -197 943 -200 q 982 -182 972 -194 q 996 -151 990 -171 q 1005 -99 1001 -131 q 1009 -19 1008 -67 q 1010 94 1010 28 l 1010 122 q 1008 229 1010 175 q 1009 334 1006 283 q 1025 430 1013 385 q 1067 508 1038 475 q 1138 556 1094 539 q 1254 574 1182 574 l 1315 574 q 1404 567 1364 574 q 1476 532 1444 560 q 1531 449 1508 504 q 1563 296 1553 393 l 1597 296 q 1558 565 1597 443 q 1444 779 1518 686 q 1007 870 1193 817 q 682 990 821 924 q 662 984 671 988 q 643 978 653 981 q 761 924 693 951 q 897 881 829 897 q 733 860 817 860 q 490 900 618 860 q 282 652 356 807 q 208 296 208 497 l 246 296 m 360 717 l 524 775 l 686 717 l 686 588 l 524 647 l 360 588 l 360 717 m 1119 717 l 1282 775 l 1446 717 l 1446 588 l 1282 647 l 1119 588 l 1119 717 m 511 296 q 493 309 500 300 q 486 331 486 318 q 497 356 486 346 q 522 367 507 367 q 548 356 538 367 q 558 331 558 346 q 551 309 558 318 q 533 296 544 300 l 624 296 q 618 363 622 332 q 603 408 614 393 q 578 424 593 421 q 538 426 563 426 l 511 426 q 472 424 486 426 q 446 408 457 421 q 433 371 439 397 q 424 296 426 344 l 511 296 m 1272 296 q 1249 331 1249 306 q 1259 356 1249 346 q 1285 367 1269 367 q 1310 356 1300 367 q 1321 331 1321 346 q 1314 309 1321 318 q 1296 296 1307 300 l 1385 296 q 1363 408 1379 389 q 1337 424 1351 421 q 1297 426 1322 426 l 1271 426 q 1231 424 1246 426 q 1206 408 1217 421 q 1190 363 1194 393 q 1185 296 1186 332 l 1272 296 z "},"2":{"ha":785,"x_min":26,"x_max":696,"o":"m 218 672 l 501 672 l 501 479 l 696 479 l 696 192 l 218 192 l 218 672 m 394 539 l 394 611 l 328 611 l 328 539 l 394 539 m 26 192 l 218 192 l 218 -3 l 26 192 z "},"3":{"ha":1803,"x_min":-60,"x_max":1863,"o":"m -60 296 l 63 296 q 124 654 63 494 q 297 926 186 814 q 563 1100 408 1039 q 903 1161 718 1161 q 1242 1100 1088 1161 q 1508 926 1396 1039 q 1681 654 1619 814 q 1743 296 1743 494 l 1863 296 l 1863 182 l 1190 182 q 1192 157 1190 169 q 1193 135 1193 144 l 1193 107 q 1174 -152 1193 -58 q 1122 -292 1156 -246 q 1040 -348 1088 -337 q 933 -358 992 -358 l 875 -358 q 802 -354 836 -358 q 739 -335 768 -350 q 687 -290 710 -319 q 648 -209 664 -261 q 624 -80 632 -157 q 615 107 615 -3 l 615 135 q 617 157 615 144 q 618 182 618 169 l -60 182 l -60 296 m 246 296 q 278 449 257 393 q 333 532 300 504 q 406 567 365 560 q 494 574 447 574 l 556 574 q 673 555 629 574 q 743 504 717 536 q 783 426 771 471 q 798 332 794 382 q 800 228 801 282 q 799 122 799 175 l 799 94 q 799 -19 799 28 q 803 -99 800 -67 q 813 -152 807 -132 q 826 -182 818 -172 q 851 -197 836 -194 q 890 -200 867 -200 l 918 -200 q 958 -197 943 -200 q 982 -182 972 -194 q 996 -151 990 -171 q 1005 -99 1001 -131 q 1009 -19 1008 -67 q 1010 94 1010 28 l 1010 122 q 1008 229 1010 175 q 1009 334 1006 283 q 1025 430 1013 385 q 1067 508 1038 475 q 1138 556 1094 539 q 1254 574 1182 574 l 1315 574 q 1404 567 1364 574 q 1476 532 1444 560 q 1531 449 1508 504 q 1563 296 1553 393 l 1597 296 q 1558 565 1597 443 q 1444 779 1518 686 q 1007 870 1193 817 q 682 990 821 924 q 662 984 671 988 q 643 978 653 981 q 761 924 693 951 q 897 881 829 897 q 733 860 817 860 q 490 900 618 860 q 282 652 356 807 q 208 296 208 497 l 246 296 m 360 717 l 524 775 l 686 717 l 686 588 l 524 647 l 360 588 l 360 717 m 1119 717 l 1282 775 l 1446 717 l 1446 588 l 1282 647 l 1119 588 l 1119 717 m 511 296 q 493 309 500 300 q 486 331 486 318 q 497 356 486 346 q 522 367 507 367 q 548 356 538 367 q 558 331 558 346 q 551 309 558 318 q 533 296 544 300 l 624 296 q 618 363 622 332 q 603 408 614 393 q 578 424 593 421 q 538 426 563 426 l 511 426 q 472 424 486 426 q 446 408 457 421 q 433 371 439 397 q 424 296 426 344 l 511 296 m 1272 296 q 1249 331 1249 306 q 1259 356 1249 346 q 1285 367 1269 367 q 1310 356 1300 367 q 1321 331 1321 346 q 1314 309 1321 318 q 1296 296 1307 300 l 1385 296 q 1363 408 1379 389 q 1337 424 1351 421 q 1297 426 1322 426 l 1271 426 q 1231 424 1246 426 q 1206 408 1217 421 q 1190 363 1194 393 q 1185 296 1186 332 l 1272 296 z "},"4":{"ha":785,"x_min":26,"x_max":696,"o":"m 218 672 l 501 672 l 501 479 l 696 479 l 696 192 l 218 192 l 218 672 m 394 539 l 394 611 l 328 611 l 328 539 l 394 539 m 26 192 l 218 192 l 218 -3 l 26 192 z "},"5":{"ha":1803,"x_min":-60,"x_max":1863,"o":"m -60 296 l 63 296 q 124 654 63 494 q 297 926 186 814 q 563 1100 408 1039 q 903 1161 718 1161 q 1242 1100 1088 1161 q 1508 926 1396 1039 q 1681 654 1619 814 q 1743 296 1743 494 l 1863 296 l 1863 182 l 1190 182 q 1192 157 1190 169 q 1193 135 1193 144 l 1193 107 q 1174 -152 1193 -58 q 1122 -292 1156 -246 q 1040 -348 1088 -337 q 933 -358 992 -358 l 875 -358 q 802 -354 836 -358 q 739 -335 768 -350 q 687 -290 710 -319 q 648 -209 664 -261 q 624 -80 632 -157 q 615 107 615 -3 l 615 135 q 617 157 615 144 q 618 182 618 169 l -60 182 l -60 296 m 246 296 q 278 449 257 393 q 333 532 300 504 q 406 567 365 560 q 494 574 447 574 l 556 574 q 673 555 629 574 q 743 504 717 536 q 783 426 771 471 q 798 332 794 382 q 800 228 801 282 q 799 122 799 175 l 799 94 q 799 -19 799 28 q 803 -99 800 -67 q 813 -152 807 -132 q 826 -182 818 -172 q 851 -197 836 -194 q 890 -200 867 -200 l 918 -200 q 958 -197 943 -200 q 982 -182 972 -194 q 996 -151 990 -171 q 1005 -99 1001 -131 q 1009 -19 1008 -67 q 1010 94 1010 28 l 1010 122 q 1008 229 1010 175 q 1009 334 1006 283 q 1025 430 1013 385 q 1067 508 1038 475 q 1138 556 1094 539 q 1254 574 1182 574 l 1315 574 q 1404 567 1364 574 q 1476 532 1444 560 q 1531 449 1508 504 q 1563 296 1553 393 l 1597 296 q 1558 565 1597 443 q 1444 779 1518 686 q 1007 870 1193 817 q 682 990 821 924 q 662 984 671 988 q 643 978 653 981 q 761 924 693 951 q 897 881 829 897 q 733 860 817 860 q 490 900 618 860 q 282 652 356 807 q 208 296 208 497 l 246 296 m 360 717 l 524 775 l 686 717 l 686 588 l 524 647 l 360 588 l 360 717 m 1119 717 l 1282 775 l 1446 717 l 1446 588 l 1282 647 l 1119 588 l 1119 717 m 511 296 q 493 309 500 300 q 486 331 486 318 q 497 356 486 346 q 522 367 507 367 q 548 356 538 367 q 558 331 558 346 q 551 309 558 318 q 533 296 544 300 l 624 296 q 618 363 622 332 q 603 408 614 393 q 578 424 593 421 q 538 426 563 426 l 511 426 q 472 424 486 426 q 446 408 457 421 q 433 371 439 397 q 424 296 426 344 l 511 296 m 1272 296 q 1249 331 1249 306 q 1259 356 1249 346 q 1285 367 1269 367 q 1310 356 1300 367 q 1321 331 1321 346 q 1314 309 1321 318 q 1296 296 1307 300 l 1385 296 q 1363 408 1379 389 q 1337 424 1351 421 q 1297 426 1322 426 l 1271 426 q 1231 424 1246 426 q 1206 408 1217 421 q 1190 363 1194 393 q 1185 296 1186 332 l 1272 296 z "},"6":{"ha":785,"x_min":26,"x_max":696,"o":"m 218 672 l 501 672 l 501 479 l 696 479 l 696 192 l 218 192 l 218 672 m 394 539 l 394 611 l 328 611 l 328 539 l 394 539 m 26 192 l 218 192 l 218 -3 l 26 192 z "},"7":{"ha":1803,"x_min":-60,"x_max":1863,"o":"m -60 296 l 63 296 q 124 654 63 494 q 297 926 186 814 q 563 1100 408 1039 q 903 1161 718 1161 q 1242 1100 1088 1161 q 1508 926 1396 1039 q 1681 654 1619 814 q 1743 296 1743 494 l 1863 296 l 1863 182 l 1190 182 q 1192 157 1190 169 q 1193 135 1193 144 l 1193 107 q 1174 -152 1193 -58 q 1122 -292 1156 -246 q 1040 -348 1088 -337 q 933 -358 992 -358 l 875 -358 q 802 -354 836 -358 q 739 -335 768 -350 q 687 -290 710 -319 q 648 -209 664 -261 q 624 -80 632 -157 q 615 107 615 -3 l 615 135 q 617 157 615 144 q 618 182 618 169 l -60 182 l -60 296 m 246 296 q 278 449 257 393 q 333 532 300 504 q 406 567 365 560 q 494 574 447 574 l 556 574 q 673 555 629 574 q 743 504 717 536 q 783 426 771 471 q 798 332 794 382 q 800 228 801 282 q 799 122 799 175 l 799 94 q 799 -19 799 28 q 803 -99 800 -67 q 813 -152 807 -132 q 826 -182 818 -172 q 851 -197 836 -194 q 890 -200 867 -200 l 918 -200 q 958 -197 943 -200 q 982 -182 972 -194 q 996 -151 990 -171 q 1005 -99 1001 -131 q 1009 -19 1008 -67 q 1010 94 1010 28 l 1010 122 q 1008 229 1010 175 q 1009 334 1006 283 q 1025 430 1013 385 q 1067 508 1038 475 q 1138 556 1094 539 q 1254 574 1182 574 l 1315 574 q 1404 567 1364 574 q 1476 532 1444 560 q 1531 449 1508 504 q 1563 296 1553 393 l 1597 296 q 1558 565 1597 443 q 1444 779 1518 686 q 1007 870 1193 817 q 682 990 821 924 q 662 984 671 988 q 643 978 653 981 q 761 924 693 951 q 897 881 829 897 q 733 860 817 860 q 490 900 618 860 q 282 652 356 807 q 208 296 208 497 l 246 296 m 360 717 l 524 775 l 686 717 l 686 588 l 524 647 l 360 588 l 360 717 m 1119 717 l 1282 775 l 1446 717 l 1446 588 l 1282 647 l 1119 588 l 1119 717 m 511 296 q 493 309 500 300 q 486 331 486 318 q 497 356 486 346 q 522 367 507 367 q 548 356 538 367 q 558 331 558 346 q 551 309 558 318 q 533 296 544 300 l 624 296 q 618 363 622 332 q 603 408 614 393 q 578 424 593 421 q 538 426 563 426 l 511 426 q 472 424 486 426 q 446 408 457 421 q 433 371 439 397 q 424 296 426 344 l 511 296 m 1272 296 q 1249 331 1249 306 q 1259 356 1249 346 q 1285 367 1269 367 q 1310 356 1300 367 q 1321 331 1321 346 q 1314 309 1321 318 q 1296 296 1307 300 l 1385 296 q 1363 408 1379 389 q 1337 424 1351 421 q 1297 426 1322 426 l 1271 426 q 1231 424 1246 426 q 1206 408 1217 421 q 1190 363 1194 393 q 1185 296 1186 332 l 1272 296 z "},"8":{"ha":785,"x_min":26,"x_max":696,"o":"m 218 672 l 501 672 l 501 479 l 696 479 l 696 192 l 218 192 l 218 672 m 394 539 l 394 611 l 328 611 l 328 539 l 394 539 m 26 192 l 218 192 l 218 -3 l 26 192 z "},"9":{"ha":1803,"x_min":-60,"x_max":1863,"o":"m -60 296 l 63 296 q 124 654 63 494 q 297 926 186 814 q 563 1100 408 1039 q 903 1161 718 1161 q 1242 1100 1088 1161 q 1508 926 1396 1039 q 1681 654 1619 814 q 1743 296 1743 494 l 1863 296 l 1863 182 l 1190 182 q 1192 157 1190 169 q 1193 135 1193 144 l 1193 107 q 1174 -152 1193 -58 q 1122 -292 1156 -246 q 1040 -348 1088 -337 q 933 -358 992 -358 l 875 -358 q 802 -354 836 -358 q 739 -335 768 -350 q 687 -290 710 -319 q 648 -209 664 -261 q 624 -80 632 -157 q 615 107 615 -3 l 615 135 q 617 157 615 144 q 618 182 618 169 l -60 182 l -60 296 m 246 296 q 278 449 257 393 q 333 532 300 504 q 406 567 365 560 q 494 574 447 574 l 556 574 q 673 555 629 574 q 743 504 717 536 q 783 426 771 471 q 798 332 794 382 q 800 228 801 282 q 799 122 799 175 l 799 94 q 799 -19 799 28 q 803 -99 800 -67 q 813 -152 807 -132 q 826 -182 818 -172 q 851 -197 836 -194 q 890 -200 867 -200 l 918 -200 q 958 -197 943 -200 q 982 -182 972 -194 q 996 -151 990 -171 q 1005 -99 1001 -131 q 1009 -19 1008 -67 q 1010 94 1010 28 l 1010 122 q 1008 229 1010 175 q 1009 334 1006 283 q 1025 430 1013 385 q 1067 508 1038 475 q 1138 556 1094 539 q 1254 574 1182 574 l 1315 574 q 1404 567 1364 574 q 1476 532 1444 560 q 1531 449 1508 504 q 1563 296 1553 393 l 1597 296 q 1558 565 1597 443 q 1444 779 1518 686 q 1007 870 1193 817 q 682 990 821 924 q 662 984 671 988 q 643 978 653 981 q 761 924 693 951 q 897 881 829 897 q 733 860 817 860 q 490 900 618 860 q 282 652 356 807 q 208 296 208 497 l 246 296 m 360 717 l 524 775 l 686 717 l 686 588 l 524 647 l 360 588 l 360 717 m 1119 717 l 1282 775 l 1446 717 l 1446 588 l 1282 647 l 1119 588 l 1119 717 m 511 296 q 493 309 500 300 q 486 331 486 318 q 497 356 486 346 q 522 367 507 367 q 548 356 538 367 q 558 331 558 346 q 551 309 558 318 q 533 296 544 300 l 624 296 q 618 363 622 332 q 603 408 614 393 q 578 424 593 421 q 538 426 563 426 l 511 426 q 472 424 486 426 q 446 408 457 421 q 433 371 439 397 q 424 296 426 344 l 511 296 m 1272 296 q 1249 331 1249 306 q 1259 356 1249 346 q 1285 367 1269 367 q 1310 356 1300 367 q 1321 331 1321 346 q 1314 309 1321 318 q 1296 296 1307 300 l 1385 296 q 1363 408 1379 389 q 1337 424 1351 421 q 1297 426 1322 426 l 1271 426 q 1231 424 1246 426 q 1206 408 1217 421 q 1190 363 1194 393 q 1185 296 1186 332 l 1272 296 z "},"\u0000":{"ha":0,"x_min":0,"x_max":0,"o":""},"\r":{"ha":347,"x_min":0,"x_max":0,"o":""}," ":{"ha":281,"x_min":0,"x_max":0,"o":""},"O":{"ha":681,"x_min":51,"x_max":628,"o":"m 311 -3 q 205 8 253 -3 q 123 62 157 18 q 70 194 89 106 q 51 436 51 282 l 51 506 q 70 748 51 660 q 123 880 89 836 q 205 934 157 924 q 311 944 253 944 l 371 944 q 476 934 429 944 q 558 881 524 924 q 610 749 592 838 q 628 506 628 661 l 628 436 q 609 192 628 281 q 557 61 590 104 q 476 8 524 18 q 369 -3 428 -3 l 311 -3 m 263 172 q 288 158 274 161 q 326 154 301 154 l 354 154 q 393 158 379 154 q 418 172 407 161 q 441 252 436 193 q 446 436 446 311 l 446 506 q 441 690 446 631 q 418 769 436 749 q 393 785 407 782 q 354 788 379 788 l 326 788 q 288 785 301 788 q 263 769 274 782 q 249 741 254 760 q 240 691 243 722 q 235 614 236 660 q 235 506 235 568 l 235 436 q 240 252 235 311 q 263 172 244 193 z "},"H":{"ha":710,"x_min":13,"x_max":699,"o":"m 15 146 l 81 146 l 81 796 l 13 796 l 13 942 l 333 942 l 333 796 l 264 796 l 264 560 l 447 560 l 447 796 l 378 796 l 378 942 l 699 942 l 699 796 l 629 796 l 629 146 l 696 146 l 696 0 l 378 0 l 378 146 l 447 146 l 447 403 l 264 403 l 264 146 l 333 146 l 333 0 l 15 0 l 15 146 z "},"C":{"ha":618,"x_min":51,"x_max":567,"o":"m 410 292 l 567 292 l 567 94 q 542 25 567 50 q 472 0 517 0 l 311 0 q 205 10 253 0 q 123 65 157 21 q 70 196 89 108 q 51 439 51 283 l 51 503 q 70 746 51 658 q 123 877 89 833 q 205 931 157 921 q 311 942 253 942 l 472 942 q 542 917 517 942 q 567 847 567 892 l 567 650 l 410 650 l 410 774 q 400 785 410 785 l 326 785 q 288 782 301 785 q 263 767 274 779 q 249 740 254 757 q 240 692 243 722 q 235 615 236 661 q 235 503 235 569 l 235 439 q 235 326 235 372 q 240 250 236 281 q 249 203 243 219 q 263 175 254 186 q 288 160 274 164 q 326 157 301 157 l 400 157 q 410 168 410 157 l 410 292 z "},"Q":{"ha":681,"x_min":51,"x_max":669,"o":"m 311 -1 q 205 9 253 -1 q 123 63 157 19 q 70 195 89 107 q 51 438 51 283 l 51 504 q 70 747 51 658 q 123 878 89 835 q 205 933 157 922 q 311 943 253 943 l 371 943 q 476 933 429 943 q 558 879 524 922 q 610 748 592 836 q 628 504 628 660 l 628 438 q 619 257 628 331 q 594 135 611 183 l 669 67 l 571 -39 l 510 22 q 445 3 481 7 q 369 -1 410 -1 l 311 -1 m 263 174 q 288 159 274 163 q 326 156 301 156 l 354 156 q 374 157 368 156 l 301 229 l 388 321 l 442 272 q 445 343 444 303 q 446 438 446 383 l 446 504 q 441 688 446 629 q 418 768 436 747 q 393 783 407 781 q 354 786 379 786 l 326 786 q 288 783 301 786 q 263 768 274 781 q 249 740 254 758 q 240 690 243 721 q 235 613 236 658 q 235 504 235 567 l 235 438 q 240 253 235 313 q 263 174 244 194 z "},"U":{"ha":703,"x_min":13,"x_max":690,"o":"m 13 942 l 326 942 l 326 796 l 261 796 l 261 258 q 263 198 261 219 q 272 166 264 176 q 297 153 281 156 q 344 151 314 151 l 358 151 q 406 153 389 151 q 431 166 422 156 q 440 198 439 176 q 442 258 442 219 l 442 796 l 376 796 l 376 942 l 690 942 l 690 796 l 625 796 l 625 267 q 609 122 625 176 q 560 40 593 68 q 476 3 526 11 q 358 -6 426 -6 l 346 -6 q 228 3 278 -6 q 144 40 178 11 q 94 122 111 68 q 78 267 78 176 l 78 796 l 13 796 l 13 942 z "},"D":{"ha":683,"x_min":13,"x_max":632,"o":"m 15 146 l 81 146 l 81 796 l 13 796 l 13 942 l 374 942 q 480 931 432 942 q 561 877 528 921 q 613 746 594 833 q 632 503 632 658 l 632 439 q 613 196 632 283 q 561 65 594 108 q 480 10 528 21 q 374 0 432 0 l 15 0 l 15 146 m 357 157 q 397 160 382 157 q 422 175 411 164 q 435 203 431 186 q 444 250 440 219 q 448 326 447 281 q 449 439 449 372 l 449 503 q 448 615 449 569 q 444 692 447 661 q 435 740 440 722 q 422 767 431 757 q 397 782 411 779 q 357 785 382 785 l 264 785 l 264 157 l 357 157 z "},"E":{"ha":578,"x_min":11,"x_max":542,"o":"m 14 146 l 81 146 l 81 796 l 11 796 l 11 942 l 526 942 l 526 650 l 368 650 l 368 785 l 264 785 l 264 560 l 325 560 l 325 613 l 460 613 l 460 350 l 325 350 l 325 403 l 264 403 l 264 157 l 385 157 l 385 292 l 542 292 l 542 0 l 14 0 l 14 146 z "},"T":{"ha":628,"x_min":19,"x_max":610,"o":"m 157 146 l 222 146 l 222 785 l 175 785 l 175 650 l 19 650 l 19 942 l 610 942 l 610 650 l 454 650 l 454 785 l 406 785 l 406 146 l 472 146 l 472 0 l 157 0 l 157 146 z "},"F":{"ha":568,"x_min":13,"x_max":536,"o":"m 15 146 l 81 146 l 81 796 l 13 796 l 13 942 l 536 942 l 536 650 l 379 650 l 379 785 l 264 785 l 264 560 l 335 560 l 335 613 l 469 613 l 469 350 l 335 350 l 335 403 l 264 403 l 264 146 l 335 146 l 335 0 l 15 0 l 15 146 z "},"I":{"ha":343,"x_min":13,"x_max":332,"o":"m 15 146 l 81 146 l 81 796 l 13 796 l 13 942 l 332 942 l 332 796 l 264 796 l 264 146 l 329 146 l 329 0 l 15 0 l 15 146 z "},"L":{"ha":549,"x_min":13,"x_max":532,"o":"m 15 146 l 81 146 l 81 796 l 13 796 l 13 942 l 335 942 l 335 796 l 264 796 l 264 157 l 375 157 l 375 292 l 532 292 l 532 0 l 15 0 l 15 146 z "},"A":{"ha":696,"x_min":10,"x_max":688,"o":"m 10 146 l 74 146 l 214 796 l 150 796 l 150 942 l 453 942 l 625 146 l 688 146 l 688 0 l 401 0 l 401 146 l 446 146 l 433 214 l 265 214 l 253 146 l 294 146 l 294 0 l 10 0 l 10 146 m 403 371 l 361 600 l 349 699 l 338 600 l 296 371 l 403 371 z "},"V":{"ha":689,"x_min":11,"x_max":679,"o":"m 75 796 l 11 796 l 11 942 l 299 942 l 299 796 l 257 796 l 336 399 l 346 294 l 354 399 l 433 796 l 390 796 l 390 942 l 679 942 l 679 796 l 614 796 l 443 0 l 246 0 l 75 796 z "},"G":{"ha":653,"x_min":47,"x_max":600,"o":"m 600 94 q 575 25 600 50 q 506 0 550 0 l 306 0 q 199 10 247 0 q 118 65 151 21 q 66 196 85 108 q 47 439 47 283 l 47 503 q 66 746 47 658 q 118 877 85 833 q 199 931 151 921 q 306 942 247 942 l 488 942 q 557 917 532 942 q 582 847 582 892 l 582 650 l 425 650 l 425 774 q 414 785 425 785 l 322 785 q 283 782 297 785 q 257 767 268 779 q 244 740 249 757 q 235 692 239 722 q 231 615 232 661 q 231 503 231 569 l 231 439 q 231 326 231 372 q 235 250 232 281 q 244 203 239 219 q 257 175 249 186 q 283 160 268 164 q 322 157 297 157 l 414 157 q 425 168 425 157 l 425 403 l 304 403 l 304 553 l 532 553 q 588 540 575 553 q 600 483 600 526 l 600 94 z "},"J":{"ha":467,"x_min":11,"x_max":457,"o":"m 11 146 l 118 146 q 158 149 143 146 q 183 163 174 151 q 197 188 192 172 q 205 229 203 203 q 208 295 207 256 q 208 393 208 335 l 208 796 l 132 796 l 132 942 l 457 942 l 457 796 l 392 796 l 392 393 q 378 176 392 256 q 333 58 364 97 q 253 10 303 19 q 133 0 204 0 l 11 0 l 11 146 z "},"P":{"ha":649,"x_min":13,"x_max":617,"o":"m 15 146 l 81 146 l 81 796 l 13 796 l 13 942 l 328 942 q 449 935 396 942 q 540 902 503 928 q 597 827 578 876 q 617 694 617 778 l 617 588 q 597 453 617 503 q 540 379 578 404 q 449 347 503 354 q 328 340 396 340 l 264 340 l 264 146 l 336 146 l 336 0 l 15 0 l 15 146 m 307 486 q 374 488 349 486 q 414 501 400 490 q 432 535 428 511 q 436 601 436 558 l 436 675 q 431 741 436 718 q 413 775 426 764 q 373 788 399 786 q 306 790 347 790 l 264 790 l 264 486 l 307 486 z "},"R":{"ha":671,"x_min":13,"x_max":667,"o":"m 15 146 l 81 146 l 81 796 l 13 796 l 13 942 l 331 942 q 452 935 399 942 q 543 902 506 928 q 600 827 581 876 q 619 694 619 778 l 619 650 q 603 533 619 579 q 554 458 586 486 q 586 346 575 415 q 597 172 597 276 l 597 146 l 667 146 l 667 0 l 457 0 q 422 8 431 0 q 414 44 414 17 l 414 121 q 413 228 414 183 q 408 305 411 274 q 399 355 406 336 q 385 383 393 374 q 361 399 375 396 q 322 403 347 403 l 264 403 l 264 146 l 332 146 l 332 0 l 15 0 l 15 146 m 310 560 q 383 563 358 560 q 419 578 407 567 q 436 610 432 589 q 440 668 440 632 l 440 675 q 435 741 440 718 q 416 775 431 764 q 376 788 401 786 q 308 790 350 790 l 264 790 l 264 560 l 310 560 z "},"N":{"ha":711,"x_min":13,"x_max":699,"o":"m 15 146 l 81 146 l 81 796 l 13 796 l 13 942 l 264 942 l 450 458 l 450 796 l 381 796 l 381 942 l 699 942 l 699 796 l 633 796 l 633 -3 l 450 -3 l 264 481 l 264 146 l 332 146 l 332 0 l 15 0 l 15 146 z "},"Y":{"ha":664,"x_min":10,"x_max":654,"o":"m 175 146 l 240 146 l 240 310 l 74 796 l 10 796 l 10 942 l 303 942 l 303 796 l 272 796 l 326 611 l 333 543 l 340 611 l 394 796 l 364 796 l 364 942 l 654 942 l 654 796 l 592 796 l 424 310 l 424 146 l 490 146 l 490 0 l 175 0 l 175 146 z "},"M":{"ha":849,"x_min":13,"x_max":836,"o":"m 15 146 l 81 146 l 81 796 l 13 796 l 13 942 l 307 942 l 410 546 l 425 460 l 439 546 l 540 942 l 836 942 l 836 796 l 768 796 l 768 146 l 833 146 l 833 0 l 524 0 l 524 146 l 586 146 l 586 564 l 571 471 l 493 178 l 356 178 l 278 471 l 263 564 l 263 146 l 325 146 l 325 0 l 15 0 l 15 146 z "},"Z":{"ha":571,"x_min":32,"x_max":540,"o":"m 32 138 l 336 785 l 206 785 l 206 650 l 50 650 l 50 942 l 533 942 l 533 813 l 225 157 l 385 157 l 385 292 l 540 292 l 540 0 l 32 0 l 32 138 z "},"X":{"ha":674,"x_min":10,"x_max":664,"o":"m 10 146 l 90 146 l 244 492 l 107 796 l 26 796 l 26 942 l 313 942 l 313 796 l 285 796 l 336 667 l 389 796 l 361 796 l 361 942 l 646 942 l 646 796 l 565 796 l 428 492 l 583 146 l 664 146 l 664 0 l 383 0 l 383 146 l 404 146 l 336 308 l 269 146 l 290 146 l 290 0 l 10 0 l 10 146 z "},"B":{"ha":656,"x_min":13,"x_max":618,"o":"m 15 146 l 81 146 l 81 796 l 13 796 l 13 942 l 363 942 q 457 933 413 942 q 535 898 501 924 q 587 826 568 872 q 606 707 606 781 l 606 689 q 586 549 606 597 q 535 481 567 501 q 568 451 553 468 q 594 410 583 435 q 612 349 606 385 q 618 263 618 314 l 618 236 q 599 110 618 157 q 544 38 579 63 q 460 7 508 14 q 351 0 411 0 l 15 0 l 15 146 m 304 550 q 363 553 340 550 q 401 566 386 556 q 421 598 415 576 q 426 657 426 619 l 426 694 q 423 744 426 724 q 404 776 419 765 q 368 788 393 785 q 304 790 343 790 l 261 790 l 261 550 l 304 550 m 311 156 q 390 157 368 156 q 422 165 413 158 q 435 199 433 175 q 438 251 438 222 l 438 269 q 433 342 438 314 q 413 386 429 371 q 376 401 400 397 q 311 404 351 404 l 261 404 l 261 156 l 311 156 z "},"K":{"ha":679,"x_min":10,"x_max":663,"o":"m 325 404 l 261 293 l 261 146 l 332 146 l 332 0 l 13 0 l 13 146 l 78 146 l 78 796 l 10 796 l 10 942 l 319 942 l 319 796 l 261 796 l 261 615 l 364 796 l 351 796 l 351 942 l 644 942 l 644 796 l 549 796 l 453 628 l 575 146 l 663 146 l 663 0 l 428 0 l 325 404 z "},"W":{"ha":983,"x_min":11,"x_max":974,"o":"m 75 796 l 11 796 l 11 942 l 307 942 l 307 796 l 256 796 l 301 501 l 310 404 l 322 501 l 406 942 l 574 942 l 657 501 l 669 404 l 678 501 l 724 796 l 678 796 l 678 942 l 974 942 l 974 796 l 904 796 l 776 0 l 593 0 l 500 504 l 489 603 l 479 504 l 386 0 l 203 0 l 75 796 z "},"S":{"ha":596,"x_min":32,"x_max":563,"o":"m 213 292 l 213 247 q 214 194 213 213 q 222 166 215 175 q 244 155 229 157 q 289 153 260 153 l 303 153 q 347 155 331 153 q 369 166 363 157 q 378 195 376 175 q 379 251 379 215 l 379 289 q 378 354 379 331 q 369 388 376 378 q 347 401 361 399 q 306 403 332 403 l 288 403 q 178 411 225 403 q 101 445 132 419 q 54 519 69 471 q 39 647 39 567 l 39 708 q 56 830 39 783 q 105 902 74 876 q 181 937 136 928 q 281 946 226 946 l 317 946 q 409 938 367 946 q 483 906 451 929 q 531 841 514 883 q 549 731 549 799 l 549 650 l 368 650 l 368 718 q 367 758 368 743 q 359 779 365 772 q 339 788 353 786 q 299 789 325 789 l 292 789 q 250 787 265 789 q 228 776 235 785 q 221 751 222 768 q 219 706 219 735 l 219 647 q 221 597 219 615 q 229 571 222 579 q 251 561 236 563 q 293 560 265 560 l 378 560 q 444 550 411 560 q 503 515 476 540 q 546 442 529 489 q 563 321 563 396 l 563 224 q 541 101 563 146 q 485 32 519 56 q 406 2 450 8 q 317 -4 361 -4 l 269 -4 q 168 5 213 -4 q 94 41 124 14 q 48 117 64 68 q 32 249 32 167 l 32 292 l 213 292 z "},"o":{"ha":585,"x_min":43,"x_max":542,"o":"m 261 -1 q 170 5 211 -1 q 101 42 129 11 q 58 136 74 72 q 43 314 43 200 l 43 375 q 58 551 43 488 q 101 644 74 614 q 170 681 129 675 q 261 688 211 688 l 328 688 q 417 681 378 688 q 485 644 457 675 q 527 551 513 614 q 542 375 542 488 l 542 314 q 527 136 542 200 q 485 42 513 72 q 417 5 457 11 q 328 -1 378 -1 l 261 -1 m 226 158 q 249 147 232 149 q 293 144 265 144 q 337 147 321 144 q 358 158 353 149 q 365 182 363 165 q 369 224 367 199 q 372 279 371 249 q 372 343 372 310 q 372 407 372 376 q 369 463 371 438 q 365 505 367 488 q 358 528 363 522 q 337 540 353 538 q 293 542 321 542 q 249 540 265 542 q 226 528 232 538 q 220 505 222 522 q 216 463 218 488 q 213 407 214 438 q 213 343 213 376 q 213 279 213 310 q 216 224 214 249 q 220 182 218 199 q 226 158 222 165 z "},"b":{"ha":608,"x_min":6,"x_max":560,"o":"m 63 807 l 6 807 l 6 953 l 232 953 l 232 644 q 295 681 258 676 q 371 686 332 686 l 390 686 q 459 683 428 686 q 513 665 490 681 q 547 614 535 649 q 560 514 560 579 l 560 174 q 547 73 560 108 q 513 22 535 38 q 459 3 490 6 q 390 0 428 0 l 371 0 q 292 6 332 0 q 228 43 253 11 l 215 0 l 63 0 l 63 807 m 339 146 q 367 148 357 146 q 383 160 378 150 q 389 188 388 169 q 390 240 390 207 l 390 446 q 389 498 390 479 q 383 526 388 517 q 367 538 378 536 q 339 540 357 540 l 283 540 q 256 538 265 540 q 240 526 246 536 q 233 498 235 517 q 232 446 232 479 l 232 240 q 233 188 232 207 q 240 160 235 169 q 256 148 246 150 q 283 146 265 146 l 339 146 z "},"d":{"ha":608,"x_min":49,"x_max":604,"o":"m 379 43 q 315 6 354 13 q 238 0 276 0 l 218 0 q 149 3 181 0 q 96 22 118 6 q 61 73 74 38 q 49 174 49 108 l 49 514 q 61 614 49 579 q 96 665 74 649 q 149 683 118 681 q 218 686 181 686 l 238 686 q 276 685 257 686 q 313 681 296 685 q 347 668 331 676 q 375 644 363 660 l 375 953 l 604 953 l 604 807 l 544 807 l 544 146 l 603 146 l 603 0 l 393 0 l 379 43 m 325 146 q 353 148 343 146 q 367 160 363 150 q 374 188 372 169 q 375 240 375 207 l 375 446 q 374 498 375 479 q 367 526 372 517 q 353 538 363 536 q 325 540 343 540 l 269 540 q 241 538 251 540 q 226 526 231 536 q 219 498 221 517 q 218 446 218 479 l 218 240 q 219 188 218 207 q 226 160 221 169 q 241 148 231 150 q 269 146 251 146 l 325 146 z "},"p":{"ha":611,"x_min":6,"x_max":560,"o":"m 7 -101 l 64 -101 l 64 540 l 6 540 l 6 686 l 218 686 l 231 644 q 260 668 243 660 q 295 681 276 676 q 333 685 314 685 q 372 686 353 686 l 392 686 q 460 683 429 686 q 514 665 492 681 q 548 614 536 649 q 560 514 560 579 l 560 174 q 548 73 560 108 q 514 22 536 38 q 460 3 492 6 q 392 0 429 0 l 372 0 q 296 6 333 0 q 233 42 258 11 l 233 -101 l 293 -101 l 293 -247 l 7 -247 l 7 -101 m 339 146 q 367 148 357 146 q 383 160 378 150 q 389 188 388 169 q 390 240 390 207 l 390 446 q 389 498 390 479 q 383 526 388 517 q 367 538 378 536 q 339 540 357 540 l 285 540 q 256 538 267 540 q 241 526 246 536 q 235 498 236 517 q 233 446 233 479 l 233 240 q 235 188 233 207 q 241 160 236 169 q 256 148 246 150 q 285 146 267 146 l 339 146 z "},"q":{"ha":610,"x_min":51,"x_max":604,"o":"m 317 -101 l 378 -101 l 378 42 q 315 6 353 11 q 239 0 278 0 l 219 0 q 151 3 182 0 q 97 22 119 6 q 63 73 75 38 q 51 174 51 108 l 51 514 q 63 614 51 579 q 97 665 75 649 q 151 683 119 681 q 219 686 182 686 l 239 686 q 318 681 278 686 q 383 643 358 675 l 396 686 l 547 686 l 547 -101 l 604 -101 l 604 -247 l 317 -247 l 317 -101 m 326 146 q 355 148 344 146 q 370 160 365 150 q 376 188 375 169 q 378 240 378 207 l 378 446 q 376 498 378 479 q 370 526 375 517 q 355 538 365 536 q 326 540 344 540 l 272 540 q 244 538 254 540 q 228 526 233 536 q 222 498 224 517 q 221 446 221 479 l 221 240 q 222 188 221 207 q 228 160 224 169 q 244 148 233 150 q 272 146 254 146 l 326 146 z "},"i":{"ha":306,"x_min":11,"x_max":300,"o":"m 65 942 l 247 942 l 247 783 l 65 783 l 65 942 m 11 146 l 69 146 l 69 540 l 11 540 l 11 686 l 243 686 l 243 146 l 300 146 l 300 0 l 11 0 l 11 146 z "},"l":{"ha":346,"x_min":6,"x_max":333,"o":"m 303 0 q 199 7 243 0 q 124 47 154 14 q 78 149 93 81 q 63 342 63 218 l 63 807 l 6 807 l 6 953 l 236 953 l 236 247 q 239 194 236 214 q 252 163 242 174 q 281 149 263 153 q 333 146 300 146 l 333 0 l 303 0 z "},"h":{"ha":614,"x_min":6,"x_max":610,"o":"m 7 146 l 64 146 l 64 807 l 6 807 l 6 953 l 233 953 l 233 644 q 262 668 246 660 q 296 681 278 676 q 333 685 314 685 q 372 686 353 686 l 383 686 q 453 683 422 686 q 507 665 485 681 q 541 614 529 649 q 553 514 553 579 l 553 146 l 610 146 l 610 0 l 383 0 l 383 446 q 382 498 383 479 q 376 526 381 517 q 360 538 371 536 q 332 540 350 540 l 285 540 q 256 538 267 540 q 241 526 246 536 q 235 498 236 517 q 233 446 233 479 l 233 146 l 290 146 l 290 0 l 7 0 l 7 146 z "},"j":{"ha":310,"x_min":-12,"x_max":254,"o":"m 72 942 l 254 942 l 254 783 l 72 783 l 72 942 m -12 -103 q 37 -97 19 -101 q 63 -83 54 -93 q 74 -52 72 -72 q 76 0 76 -32 l 76 540 l 14 540 l 14 686 l 250 686 l 250 99 q 235 -94 250 -25 q 192 -198 221 -164 q 119 -240 163 -232 q 17 -249 75 -249 l -12 -249 l -12 -103 z "},"c":{"ha":510,"x_min":43,"x_max":486,"o":"m 486 432 l 340 432 l 340 524 q 338 538 340 535 q 324 540 335 540 l 303 540 q 253 538 271 540 q 231 526 236 536 q 224 497 226 521 q 219 443 221 472 q 216 385 217 414 q 215 343 215 357 q 216 301 215 329 q 219 243 217 272 q 224 190 221 214 q 231 160 226 167 q 253 148 236 150 q 303 146 271 146 l 324 146 q 338 149 335 146 q 340 163 340 151 l 340 254 l 486 254 l 486 111 q 482 55 486 76 q 465 21 478 33 q 431 4 453 8 q 375 0 410 0 l 263 0 q 172 6 213 0 q 102 43 131 13 q 58 137 74 74 q 43 313 43 200 l 43 374 q 58 549 43 486 q 102 643 74 613 q 172 680 131 674 q 263 686 213 686 l 375 686 q 431 682 410 686 q 465 665 453 678 q 482 631 478 653 q 486 575 486 610 l 486 432 z "},"r":{"ha":446,"x_min":10,"x_max":436,"o":"m 290 536 q 272 526 276 531 q 243 466 247 507 q 239 369 239 425 l 239 146 l 299 146 l 299 0 l 11 0 l 11 146 l 69 146 l 69 540 l 10 540 l 10 686 l 221 686 l 233 639 q 297 679 258 672 q 371 686 336 686 l 436 686 l 436 443 l 290 443 l 290 536 z "},"n":{"ha":614,"x_min":6,"x_max":610,"o":"m 7 146 l 64 146 l 64 540 l 6 540 l 6 686 l 215 686 l 228 643 q 293 681 253 675 q 372 686 333 686 l 383 686 q 452 683 421 686 q 506 665 483 681 q 540 614 528 649 q 553 514 553 579 l 553 146 l 610 146 l 610 0 l 383 0 l 383 446 q 382 498 383 479 q 376 526 381 517 q 360 538 371 536 q 332 540 350 540 l 285 540 q 256 538 267 540 q 241 526 246 536 q 235 498 236 517 q 233 446 233 479 l 233 146 l 290 146 l 290 0 l 7 0 l 7 146 z "},"m":{"ha":901,"x_min":6,"x_max":897,"o":"m 7 146 l 64 146 l 64 540 l 6 540 l 6 686 l 215 686 l 228 643 q 290 681 251 675 q 363 686 328 686 l 369 686 q 419 685 396 686 q 462 678 443 685 q 496 659 481 672 q 521 621 511 646 q 549 659 532 646 q 585 678 565 672 q 625 685 604 685 q 667 686 646 686 l 672 686 q 741 683 710 686 q 794 664 772 681 q 827 613 815 647 q 839 514 839 578 l 839 146 l 897 146 l 897 0 l 669 0 l 669 446 q 668 498 669 479 q 662 526 667 517 q 647 538 657 536 q 621 540 638 540 l 586 540 q 558 538 568 540 q 544 526 549 536 q 538 498 539 517 q 536 446 536 479 l 536 146 l 593 146 l 593 0 l 367 0 l 367 446 q 365 498 367 479 q 359 526 364 517 q 344 538 354 536 q 317 540 335 540 l 283 540 q 256 538 265 540 q 241 526 246 536 q 235 498 236 517 q 233 446 233 479 l 233 146 l 290 146 l 290 0 l 7 0 l 7 146 z "},"f":{"ha":419,"x_min":26,"x_max":408,"o":"m 42 146 l 100 146 l 100 539 l 26 539 l 26 686 l 101 686 q 125 838 107 783 q 173 917 143 892 q 245 948 203 943 q 342 953 288 953 l 408 953 l 408 806 l 371 806 q 319 803 338 806 q 290 790 300 800 q 276 759 279 779 q 274 704 274 739 l 274 686 l 407 686 l 407 539 l 274 539 l 274 146 l 338 146 l 338 0 l 42 0 l 42 146 z "},"k":{"ha":583,"x_min":6,"x_max":578,"o":"m 7 146 l 64 146 l 64 807 l 6 807 l 6 953 l 238 953 l 238 435 l 311 540 l 290 540 l 290 686 l 571 686 l 571 540 l 485 540 l 433 467 l 510 146 l 578 146 l 578 0 l 374 0 l 307 283 l 238 183 l 238 146 l 297 146 l 297 0 l 7 0 l 7 146 z "},"t":{"ha":419,"x_min":19,"x_max":401,"o":"m 335 0 q 230 6 275 0 q 154 44 185 11 q 108 146 124 76 q 93 343 93 215 l 93 539 l 19 539 l 19 686 l 100 686 l 132 872 l 267 910 l 267 686 l 401 686 l 401 539 l 267 539 l 267 247 q 269 194 267 214 q 283 163 272 174 q 312 149 293 153 q 364 146 331 146 l 401 146 l 401 0 l 335 0 z "},"u":{"ha":610,"x_min":4,"x_max":606,"o":"m 383 43 q 319 6 358 11 q 240 0 279 0 l 231 0 q 162 3 193 0 q 108 22 131 6 q 74 73 86 38 q 61 174 61 108 l 61 540 l 4 540 l 4 686 l 231 686 l 231 240 q 232 188 231 207 q 239 160 233 169 q 254 148 244 150 q 282 146 264 146 l 328 146 q 356 148 346 146 q 372 160 367 150 q 378 188 376 169 q 379 240 379 207 l 379 540 l 322 540 l 322 686 l 549 686 l 549 146 l 606 146 l 606 0 l 397 0 l 383 43 z "},"v":{"ha":574,"x_min":3,"x_max":571,"o":"m 60 540 l 3 540 l 3 686 l 268 686 l 268 540 l 231 540 l 274 322 l 288 228 l 301 322 l 346 540 l 307 540 l 307 686 l 571 686 l 571 540 l 514 540 l 383 0 l 190 0 l 60 540 z "},"g":{"ha":625,"x_min":49,"x_max":621,"o":"m 199 -101 l 289 -101 q 335 -97 318 -101 q 364 -82 353 -93 q 389 32 389 -53 l 389 40 q 326 5 363 10 q 251 0 289 0 l 218 0 q 149 3 181 0 q 96 22 118 6 q 61 73 74 38 q 49 174 49 108 l 49 514 q 61 614 49 579 q 96 665 74 649 q 149 683 118 681 q 218 686 181 686 l 251 686 q 330 681 290 686 q 394 643 369 675 l 407 686 l 621 686 l 621 540 l 564 540 l 564 106 q 543 -94 564 -24 q 485 -199 522 -165 q 399 -240 449 -233 q 289 -247 349 -247 l 199 -247 l 199 -101 m 339 146 q 367 148 357 146 q 381 160 376 150 q 388 188 386 169 q 389 240 389 207 l 389 446 q 388 498 389 479 q 381 526 386 517 q 367 538 376 536 q 339 540 357 540 l 269 540 q 241 538 251 540 q 226 526 231 536 q 219 498 221 517 q 218 446 218 479 l 218 240 q 219 188 218 207 q 226 160 221 169 q 241 148 231 150 q 269 146 251 146 l 339 146 z "},"w":{"ha":828,"x_min":3,"x_max":825,"o":"m 58 540 l 3 540 l 3 686 l 263 686 l 263 540 l 224 540 l 250 381 l 261 267 l 279 381 l 338 686 l 492 686 l 551 381 l 567 272 l 578 381 l 604 540 l 565 540 l 565 686 l 825 686 l 825 540 l 768 540 l 669 0 l 506 0 l 429 367 l 414 481 l 400 367 l 325 0 l 158 0 l 58 540 z "},"x":{"ha":554,"x_min":4,"x_max":550,"o":"m 21 686 l 258 686 l 258 561 l 276 517 l 293 558 l 293 686 l 531 686 l 531 540 l 450 540 l 364 363 l 469 146 l 550 146 l 550 0 l 308 0 l 308 129 l 276 201 l 246 131 l 246 0 l 4 0 l 4 146 l 85 146 l 189 363 l 103 540 l 21 540 l 21 686 z "},"y":{"ha":583,"x_min":3,"x_max":581,"o":"m 100 -90 q 127 -95 115 -93 q 149 -97 139 -97 q 172 -92 163 -97 q 194 -58 183 -83 q 214 0 206 -32 l 190 0 l 60 540 l 3 540 l 3 686 l 261 686 l 261 540 l 228 540 l 274 333 l 290 219 l 308 333 l 357 540 l 324 540 l 324 686 l 581 686 l 581 540 l 525 540 l 403 46 q 358 -103 381 -44 q 310 -194 335 -161 q 256 -240 285 -228 q 194 -253 228 -253 q 147 -249 172 -253 q 94 -239 122 -246 l 67 -232 l 100 -90 z "},"z":{"ha":504,"x_min":25,"x_max":478,"o":"m 25 136 l 288 540 l 181 540 l 181 443 l 35 443 l 35 686 l 469 686 l 469 550 l 207 146 l 332 146 l 332 254 l 478 254 l 478 0 l 25 0 l 25 136 z "},"a":{"ha":582,"x_min":36,"x_max":576,"o":"m 356 43 q 296 7 326 14 q 214 0 265 0 q 144 10 176 0 q 88 42 113 19 q 50 101 64 64 q 36 193 36 138 l 36 243 q 43 317 36 282 q 81 378 50 351 q 174 423 111 406 q 350 443 238 440 q 347 502 350 486 q 336 529 344 518 q 318 540 329 538 q 288 542 307 542 l 104 542 l 104 686 l 288 686 q 385 681 342 686 q 458 644 428 675 q 503 548 488 614 q 519 361 519 482 l 519 146 l 576 146 l 576 0 l 368 0 l 356 43 m 350 317 q 269 310 297 315 q 224 296 240 306 q 206 242 206 285 l 206 206 q 207 171 206 183 q 216 153 208 158 q 240 146 224 147 q 283 144 256 144 q 321 146 307 144 q 341 156 335 147 q 349 180 347 164 q 350 225 350 196 l 350 317 z "},"e":{"ha":560,"x_min":43,"x_max":518,"o":"m 504 207 l 504 121 q 499 60 504 83 q 481 23 494 36 q 444 5 468 10 q 383 0 421 0 l 258 0 q 156 12 197 0 q 89 58 114 24 q 53 154 64 93 q 43 313 43 215 l 43 374 q 53 526 43 465 q 88 623 63 588 q 154 673 113 658 q 260 688 196 688 l 317 688 q 414 674 375 688 q 476 626 453 660 q 508 535 499 592 q 518 393 518 479 l 518 304 q 510 274 518 281 q 479 267 503 267 l 215 267 q 219 200 215 231 q 228 160 222 169 q 245 149 231 151 q 293 146 260 146 l 347 146 q 358 156 358 146 l 358 207 l 504 207 m 357 388 q 354 480 357 444 q 346 525 351 515 q 286 540 339 540 q 226 526 233 540 q 218 479 221 515 q 215 388 215 443 l 357 388 z "},"s":{"ha":468,"x_min":25,"x_max":443,"o":"m 171 204 l 171 158 q 182 147 171 147 l 208 147 q 249 148 236 147 q 265 154 261 149 q 273 172 272 161 q 274 199 274 182 l 274 232 q 263 274 274 264 q 213 283 253 283 q 76 324 119 283 q 33 453 33 364 l 33 515 q 49 603 33 569 q 93 656 65 638 q 158 680 121 674 q 238 686 196 686 l 268 686 q 347 680 317 686 q 394 657 378 674 q 417 610 411 640 q 424 531 424 579 l 424 483 l 278 483 l 278 528 q 267 539 278 539 l 256 539 q 228 538 238 539 q 211 533 218 538 q 202 515 204 526 q 200 489 200 504 l 200 469 q 209 428 200 439 q 260 417 218 417 q 338 410 304 417 q 395 383 372 403 q 431 331 418 364 q 443 243 443 297 l 443 182 q 426 83 443 119 q 381 28 410 47 q 310 5 351 10 q 218 0 268 0 l 182 0 q 103 6 133 0 q 55 30 72 13 q 31 78 38 47 q 25 157 25 108 l 25 204 l 171 204 z "},".":{"ha":289,"x_min":56,"x_max":235,"o":"m 56 188 l 235 188 l 235 0 l 56 0 l 56 188 z "},",":{"ha":289,"x_min":56,"x_max":235,"o":"m 119 0 l 56 0 l 56 183 l 235 183 l 235 14 l 160 -143 l 72 -143 l 119 0 z "},"-":{"ha":361,"x_min":38,"x_max":325,"o":"m 38 422 l 325 422 l 325 265 l 38 265 l 38 422 z "},"_":{"ha":585,"x_min":6,"x_max":579,"o":"m 6 -35 l 579 -35 l 579 -192 l 6 -192 l 6 -35 z "},"–":{"ha":506,"x_min":38,"x_max":468,"o":"m 38 422 l 468 422 l 468 264 l 38 264 l 38 422 z "},"—":{"ha":936,"x_min":38,"x_max":900,"o":"m 38 422 l 900 422 l 900 264 l 38 264 l 38 422 z "},":":{"ha":289,"x_min":56,"x_max":235,"o":"m 56 686 l 235 686 l 235 499 l 56 499 l 56 686 m 56 188 l 235 188 l 235 0 l 56 0 l 56 188 z "},";":{"ha":289,"x_min":56,"x_max":235,"o":"m 56 686 l 235 686 l 235 499 l 56 499 l 56 686 m 119 0 l 56 0 l 56 188 l 235 188 l 235 14 l 160 -143 l 72 -143 l 119 0 z "},"+":{"ha":506,"x_min":38,"x_max":468,"o":"m 38 550 l 172 550 l 172 686 l 335 686 l 335 550 l 468 550 l 468 392 l 335 392 l 335 254 l 172 254 l 172 392 l 38 392 l 38 550 z "},"×":{"ha":506,"x_min":43,"x_max":464,"o":"m 158 681 l 254 585 l 349 681 l 464 565 l 369 471 l 464 376 l 349 261 l 254 356 l 158 260 l 43 375 l 139 471 l 43 567 l 158 681 z "},"/":{"ha":499,"x_min":6,"x_max":494,"o":"m 311 942 l 494 942 l 189 0 l 6 0 l 311 942 z "},"\\":{"ha":499,"x_min":6,"x_max":494,"o":"m 6 942 l 189 942 l 494 0 l 311 0 l 6 942 z "},"|":{"ha":315,"x_min":67,"x_max":249,"o":"m 249 953 l 249 -222 l 67 -222 l 67 953 l 249 953 z "},"−":{"ha":506,"x_min":40,"x_max":471,"o":"m 40 549 l 471 549 l 471 392 l 40 392 l 40 549 z "},"=":{"ha":506,"x_min":38,"x_max":469,"o":"m 38 671 l 469 671 l 469 513 l 38 513 l 38 671 m 38 429 l 469 429 l 469 272 l 38 272 l 38 429 z "},"ı":{"ha":307,"x_min":10,"x_max":301,"o":"m 10 146 l 71 146 l 71 540 l 11 540 l 11 686 l 244 686 l 244 146 l 301 146 l 301 0 l 10 0 l 10 146 z "},"\"":{"ha":504,"x_min":38,"x_max":468,"o":"m 38 942 l 214 942 l 214 649 l 38 649 l 38 942 m 292 942 l 468 942 l 468 649 l 292 649 l 292 942 z "},"(":{"ha":393,"x_min":51,"x_max":340,"o":"m 311 -247 q 205 -237 253 -247 q 123 -183 157 -226 q 70 -51 89 -139 q 51 192 51 38 l 51 503 q 70 745 51 657 q 123 877 89 833 q 205 931 157 921 q 311 942 253 942 l 340 942 l 340 785 l 326 785 q 288 782 301 785 q 263 767 274 779 q 249 738 254 757 q 240 688 243 719 q 235 611 236 657 q 235 503 235 565 l 235 192 q 240 7 235 67 q 263 -72 244 -53 q 288 -87 274 -85 q 326 -90 301 -90 l 340 -90 l 340 -247 l 311 -247 z "},")":{"ha":393,"x_min":51,"x_max":340,"o":"m 51 -90 l 65 -90 q 105 -87 90 -90 q 131 -72 119 -85 q 152 7 147 -53 q 157 192 157 67 l 157 503 q 156 611 157 565 q 152 688 156 657 q 144 738 149 719 q 131 767 139 757 q 105 782 119 779 q 65 785 90 785 l 51 785 l 51 942 l 82 942 q 188 931 140 942 q 269 877 236 921 q 322 745 303 833 q 340 503 340 657 l 340 192 q 322 -51 340 38 q 269 -183 303 -139 q 188 -237 236 -226 q 82 -247 140 -247 l 51 -247 l 51 -90 z "},"¯":{"ha":432,"x_min":60,"x_max":372,"o":"m 60 885 l 372 885 l 372 732 l 60 732 l 60 885 z "},"*":{"ha":506,"x_min":69,"x_max":438,"o":"m 201 738 l 69 708 l 69 808 l 196 782 l 88 853 l 158 924 l 232 813 l 204 942 l 304 942 l 276 813 l 349 922 l 419 853 l 314 782 l 438 808 l 438 708 l 310 736 l 419 664 l 347 593 l 278 701 l 304 574 l 204 574 l 231 701 l 158 592 l 89 663 l 201 738 z "},"¦":{"ha":315,"x_min":67,"x_max":249,"o":"m 249 942 l 249 425 l 67 425 l 67 942 l 249 942 m 249 294 l 249 -222 l 67 -222 l 67 294 l 249 294 z "},"¿":{"ha":596,"x_min":36,"x_max":565,"o":"m 453 500 l 258 500 l 258 686 l 453 686 l 453 500 m 446 422 q 401 249 446 314 q 268 183 356 183 l 254 183 q 225 161 232 183 q 218 76 218 139 l 218 0 q 219 -62 218 -40 q 228 -93 221 -83 q 252 -105 236 -103 q 296 -107 268 -107 l 306 -107 q 349 -105 333 -107 q 372 -93 364 -103 q 381 -62 379 -83 q 382 0 382 -40 l 382 67 l 565 67 l 565 8 q 552 -126 565 -74 q 508 -209 539 -178 q 428 -252 478 -240 q 304 -264 378 -264 l 294 -264 q 172 -253 222 -264 q 92 -216 122 -243 q 49 -143 63 -189 q 36 -26 36 -97 l 36 101 q 83 276 36 213 q 225 339 131 339 q 245 341 238 339 q 257 351 253 343 q 263 376 261 360 q 264 422 264 393 l 264 443 l 446 443 l 446 422 z "},"!":{"ha":342,"x_min":74,"x_max":268,"o":"m 76 942 l 264 942 l 226 243 l 114 243 l 76 942 m 74 188 l 268 188 l 268 0 l 74 0 l 74 188 z "},"¡":{"ha":342,"x_min":74,"x_max":268,"o":"m 268 700 l 268 514 l 74 514 l 74 700 l 268 700 m 226 458 l 264 -242 l 76 -242 l 114 458 l 226 458 z "},"¬":{"ha":506,"x_min":38,"x_max":468,"o":"m 38 553 l 468 553 l 468 229 l 290 229 l 290 396 l 38 396 l 38 553 z "},"[":{"ha":446,"x_min":67,"x_max":411,"o":"m 67 942 l 411 942 l 411 785 l 249 785 l 249 -90 l 411 -90 l 411 -247 l 67 -247 l 67 942 z "},"]":{"ha":446,"x_min":35,"x_max":381,"o":"m 35 -247 l 35 -90 l 197 -90 l 197 785 l 35 785 l 35 942 l 381 942 l 381 -247 l 35 -247 z "},"'":{"ha":250,"x_min":38,"x_max":214,"o":"m 38 942 l 214 942 l 214 649 l 38 649 l 38 942 z "},"±":{"ha":506,"x_min":36,"x_max":468,"o":"m 38 550 l 172 550 l 172 686 l 335 686 l 335 550 l 468 550 l 468 392 l 335 392 l 335 254 l 172 254 l 172 392 l 38 392 l 38 550 m 36 201 l 468 201 l 468 44 l 36 44 l 36 201 z "},"…":{"ha":704,"x_min":40,"x_max":649,"o":"m 40 188 l 219 188 l 219 0 l 40 0 l 40 188 m 256 188 l 433 188 l 433 0 l 256 0 l 256 188 m 469 188 l 649 188 l 649 0 l 469 0 l 469 188 z "},"·":{"ha":289,"x_min":56,"x_max":235,"o":"m 56 439 l 235 439 l 235 251 l 56 251 l 56 439 z "},"÷":{"ha":506,"x_min":38,"x_max":468,"o":"m 169 744 l 338 744 l 338 604 l 169 604 l 169 744 m 38 550 l 468 550 l 468 392 l 38 392 l 38 550 m 169 338 l 338 338 l 338 197 l 169 197 l 169 338 z "},"•":{"ha":454,"x_min":89,"x_max":364,"o":"m 89 344 q 100 397 89 372 q 130 441 111 422 q 174 471 149 460 q 226 482 199 482 q 279 471 254 482 q 323 441 304 460 q 353 397 342 422 q 364 344 364 372 q 353 292 364 317 q 323 248 342 267 q 279 218 304 229 q 226 207 254 207 q 174 218 199 207 q 130 248 149 229 q 100 292 111 267 q 89 344 89 317 z "},"<":{"ha":500,"x_min":38,"x_max":464,"o":"m 38 417 l 464 581 l 464 422 l 242 343 l 464 264 l 464 106 l 38 269 l 38 417 z "},">":{"ha":500,"x_min":38,"x_max":464,"o":"m 38 107 l 38 265 l 258 344 l 38 424 l 38 582 l 464 418 l 464 271 l 38 107 z "},"⁄":{"ha":415,"x_min":-64,"x_max":479,"o":"m 325 942 l 479 942 l 90 0 l -64 0 l 325 942 z "},"^":{"ha":549,"x_min":38,"x_max":511,"o":"m 201 942 l 347 942 l 511 515 l 353 515 l 274 738 l 196 515 l 38 515 l 201 942 z "},"‹":{"ha":358,"x_min":38,"x_max":299,"o":"m 115 686 l 299 686 l 221 343 l 299 0 l 115 0 l 38 343 l 115 686 z "},"›":{"ha":358,"x_min":58,"x_max":321,"o":"m 242 0 l 58 0 l 138 343 l 58 686 l 242 686 l 321 343 l 242 0 z "},"«":{"ha":594,"x_min":36,"x_max":538,"o":"m 115 686 l 299 686 l 219 343 l 299 0 l 115 0 l 36 343 l 115 686 m 354 686 l 538 686 l 460 343 l 538 0 l 354 0 l 276 343 l 354 686 z "},"»":{"ha":594,"x_min":57,"x_max":560,"o":"m 481 0 l 297 0 l 376 343 l 297 686 l 481 686 l 560 343 l 481 0 m 240 0 l 57 0 l 136 343 l 57 686 l 240 686 l 319 343 l 240 0 z "},"†":{"ha":625,"x_min":38,"x_max":589,"o":"m 38 686 l 221 686 l 221 953 l 404 953 l 404 686 l 589 686 l 589 529 l 404 529 l 404 -222 l 221 -222 l 221 529 l 38 529 l 38 686 z "},"‡":{"ha":625,"x_min":38,"x_max":589,"o":"m 38 686 l 221 686 l 221 953 l 404 953 l 404 686 l 589 686 l 589 529 l 404 529 l 404 343 l 589 343 l 589 186 l 404 186 l 404 -222 l 221 -222 l 221 186 l 38 186 l 38 343 l 221 343 l 221 529 l 38 529 l 38 686 z "},"{":{"ha":425,"x_min":38,"x_max":400,"o":"m 368 -247 q 263 -237 311 -247 q 181 -188 215 -228 q 128 -70 147 -149 q 108 147 108 8 l 108 178 q 106 226 108 207 q 94 258 104 246 q 38 274 81 274 l 38 425 q 94 440 81 425 q 106 472 104 453 q 108 521 108 492 l 108 550 q 128 767 108 689 q 182 885 147 846 q 265 933 217 924 q 368 942 313 942 l 400 942 l 400 785 l 383 785 q 344 782 358 785 q 318 767 329 779 q 297 700 303 749 q 292 550 292 651 l 292 508 q 281 415 292 454 q 250 349 269 376 q 281 283 269 322 q 292 190 292 244 l 292 147 q 297 -4 292 46 q 318 -72 303 -54 q 344 -87 329 -85 q 383 -90 358 -90 l 400 -90 l 400 -247 l 368 -247 z "},"}":{"ha":425,"x_min":25,"x_max":388,"o":"m 25 -90 l 42 -90 q 81 -87 67 -90 q 107 -72 96 -85 q 128 -4 122 -54 q 133 147 133 46 l 133 190 q 144 283 133 244 q 175 349 156 322 q 144 415 156 376 q 133 508 133 454 l 133 550 q 128 700 133 651 q 107 767 122 749 q 81 782 96 779 q 42 785 67 785 l 25 785 l 25 942 l 57 942 q 161 933 114 942 q 243 885 208 924 q 297 767 278 846 q 317 550 317 689 l 317 521 q 319 472 317 492 q 331 440 321 453 q 388 425 344 425 l 388 274 q 331 258 344 274 q 319 226 321 246 q 317 178 317 207 l 317 147 q 297 -70 317 8 q 244 -188 278 -149 q 162 -237 210 -228 q 57 -247 114 -247 l 25 -247 l 25 -90 z "},"€":{"ha":618,"x_min":7,"x_max":567,"o":"m 7 603 l 54 603 q 81 790 61 722 q 135 892 101 858 q 213 933 168 925 q 311 942 257 942 l 472 942 q 542 917 517 942 q 567 847 567 892 l 567 650 l 410 650 l 410 774 q 400 785 410 785 l 326 785 q 288 782 301 785 q 263 767 274 779 q 251 746 256 758 q 243 715 246 733 q 238 669 240 696 q 236 603 236 642 l 436 603 l 436 508 l 235 508 l 235 503 l 235 454 l 414 454 l 414 360 l 235 358 q 238 284 236 315 q 242 232 239 253 q 251 197 246 211 q 263 175 256 183 q 288 160 274 164 q 326 157 301 157 l 400 157 q 410 168 410 157 l 410 292 l 567 292 l 567 94 q 542 25 567 50 q 472 0 517 0 l 311 0 q 211 9 257 0 q 132 53 165 18 q 78 161 99 89 q 53 360 58 233 l 7 360 l 7 454 l 51 454 l 51 503 l 51 508 l 7 508 l 7 603 z "},"‘":{"ha":289,"x_min":56,"x_max":235,"o":"m 169 800 l 235 800 l 235 614 l 56 614 l 56 785 l 126 942 l 214 942 l 169 800 z "},"’":{"ha":289,"x_min":56,"x_max":235,"o":"m 119 756 l 56 756 l 56 942 l 235 942 l 235 771 l 163 614 l 76 614 l 119 756 z "},"“":{"ha":518,"x_min":56,"x_max":464,"o":"m 169 800 l 235 800 l 235 614 l 56 614 l 56 785 l 126 942 l 214 942 l 169 800 m 399 800 l 464 800 l 464 614 l 285 614 l 285 785 l 356 942 l 443 942 l 399 800 z "},"”":{"ha":518,"x_min":56,"x_max":464,"o":"m 349 756 l 285 756 l 285 942 l 464 942 l 464 771 l 392 614 l 306 614 l 349 756 m 119 756 l 56 756 l 56 942 l 235 942 l 235 771 l 163 614 l 76 614 l 119 756 z "},"‚":{"ha":289,"x_min":56,"x_max":235,"o":"m 119 0 l 56 0 l 56 169 l 235 169 l 235 14 l 172 -151 l 85 -151 l 119 0 z "},"„":{"ha":518,"x_min":56,"x_max":464,"o":"m 119 0 l 56 0 l 56 169 l 235 169 l 235 14 l 172 -151 l 85 -151 l 119 0 m 349 0 l 285 0 l 285 169 l 464 169 l 464 14 l 401 -151 l 314 -151 l 349 0 z "},"¢":{"ha":510,"x_min":43,"x_max":486,"o":"m 206 1 q 138 17 168 4 q 86 64 107 31 q 54 157 65 97 q 43 313 43 217 l 43 374 q 54 529 43 469 q 86 622 65 589 q 138 669 107 656 q 206 685 168 682 l 206 825 l 368 825 l 368 686 l 375 686 q 431 682 410 686 q 465 665 453 678 q 482 631 478 653 q 486 575 486 610 l 486 432 l 340 432 l 340 524 q 338 538 340 535 q 324 540 335 540 l 303 540 q 253 538 271 540 q 231 526 236 536 q 224 497 226 521 q 219 443 221 472 q 216 385 217 414 q 215 343 215 357 q 216 301 215 329 q 219 243 217 272 q 224 190 221 214 q 231 160 226 167 q 253 148 236 150 q 303 146 271 146 l 324 146 q 338 149 335 146 q 340 163 340 151 l 340 254 l 486 254 l 486 111 q 482 55 486 76 q 465 21 478 33 q 431 4 453 8 q 375 0 410 0 l 368 0 l 368 -139 l 206 -139 l 206 1 z "},"#":{"ha":756,"x_min":25,"x_max":731,"o":"m 140 250 l 25 250 l 25 407 l 157 407 l 169 529 l 42 529 l 42 686 l 186 686 l 213 942 l 394 942 l 367 686 l 464 686 l 490 942 l 671 942 l 644 686 l 731 686 l 731 529 l 628 529 l 615 407 l 715 407 l 715 250 l 599 250 l 572 0 l 392 0 l 418 250 l 322 250 l 296 0 l 114 0 l 140 250 m 435 407 l 447 529 l 351 529 l 338 407 l 435 407 z "},"$":{"ha":596,"x_min":32,"x_max":563,"o":"m 219 -3 q 140 13 175 0 q 81 53 106 25 q 44 129 57 82 q 32 249 32 176 l 32 292 l 213 292 l 213 247 q 214 194 213 213 q 222 166 215 175 q 244 155 229 157 q 289 153 260 153 l 303 153 q 347 155 331 153 q 369 166 363 157 q 378 195 376 175 q 379 251 379 215 l 379 289 q 378 354 379 331 q 369 388 376 378 q 347 401 361 399 q 306 403 332 403 l 288 403 q 178 411 225 403 q 101 445 132 419 q 54 519 69 471 q 39 647 39 567 l 39 708 q 51 815 39 772 q 88 885 64 858 q 144 926 111 913 q 219 943 178 939 l 219 1085 l 376 1085 l 376 943 q 446 926 414 939 q 501 890 478 914 q 536 826 524 865 q 549 731 549 788 l 549 650 l 368 650 l 368 718 q 367 758 368 743 q 359 779 365 772 q 339 788 353 786 q 299 789 325 789 l 292 789 q 250 787 265 789 q 228 776 235 785 q 221 751 222 768 q 219 706 219 735 l 219 647 q 221 597 219 615 q 229 571 222 579 q 251 561 236 563 q 293 560 265 560 l 378 560 q 444 550 411 560 q 503 515 476 540 q 546 442 529 489 q 563 321 563 396 l 563 224 q 547 117 563 160 q 506 50 532 75 q 447 14 481 25 q 376 -1 414 3 l 376 -143 l 219 -143 l 219 -3 z "},"%":{"ha":1151,"x_min":57,"x_max":1094,"o":"m 283 363 q 190 371 232 363 q 118 407 147 379 q 73 487 89 435 q 57 625 57 539 l 57 685 q 73 823 57 771 q 118 902 89 875 q 190 938 147 929 q 283 946 232 946 l 338 946 q 431 938 390 946 q 501 902 472 929 q 546 823 531 875 q 561 685 561 771 l 561 625 q 546 487 561 539 q 501 407 531 435 q 431 371 472 379 q 338 363 390 363 l 283 363 m 707 943 l 888 943 l 764 642 l 583 642 l 707 943 m 329 518 q 360 520 349 518 q 376 533 371 522 q 383 565 382 543 q 383 625 383 586 l 383 685 q 383 745 383 724 q 376 777 382 767 q 360 790 371 788 q 329 792 349 792 l 289 792 q 258 790 269 792 q 242 777 247 788 q 237 745 238 767 q 236 685 236 724 l 236 625 q 237 565 236 586 q 242 533 238 543 q 258 520 247 522 q 289 518 269 518 l 329 518 m 817 -4 q 722 4 764 -4 q 651 40 681 13 q 606 119 622 67 q 590 257 590 171 l 590 317 q 606 455 590 403 q 651 535 622 507 q 722 571 681 563 q 817 579 764 579 l 869 579 q 964 571 922 579 q 1035 535 1006 563 q 1079 455 1064 507 q 1094 317 1094 403 l 1094 257 q 1079 119 1094 171 q 1035 40 1064 67 q 964 4 1006 13 q 869 -4 922 -4 l 817 -4 m 861 150 q 892 152 881 150 q 908 165 903 154 q 915 197 914 175 q 915 257 915 218 l 915 317 q 915 377 915 356 q 908 409 914 399 q 892 422 903 419 q 861 424 881 424 l 822 424 q 792 422 803 424 q 776 409 781 419 q 769 377 771 399 q 768 317 768 356 l 768 257 q 769 197 768 218 q 776 165 771 175 q 792 152 781 154 q 822 150 803 150 l 861 150 m 394 301 l 576 301 l 453 0 l 272 0 l 394 301 z "},"‰":{"ha":1713,"x_min":57,"x_max":1656,"o":"m 711 951 l 892 951 l 764 642 l 583 642 l 711 951 m 283 363 q 190 371 232 363 q 118 407 147 379 q 73 487 89 435 q 57 625 57 539 l 57 685 q 73 823 57 771 q 118 902 89 875 q 190 938 147 929 q 283 946 232 946 l 338 946 q 431 938 390 946 q 501 902 472 929 q 546 823 531 875 q 561 685 561 771 l 561 625 q 546 487 561 539 q 501 407 531 435 q 431 371 472 379 q 338 363 390 363 l 283 363 m 329 518 q 360 520 349 518 q 376 533 371 522 q 383 565 382 543 q 383 625 383 586 l 383 685 q 383 745 383 724 q 376 777 382 767 q 360 790 371 788 q 329 792 349 792 l 289 792 q 258 790 269 792 q 242 777 247 788 q 237 745 238 767 q 236 685 236 724 l 236 625 q 237 565 236 586 q 242 533 238 543 q 258 520 247 522 q 289 518 269 518 l 329 518 m 817 -4 q 722 4 764 -4 q 651 40 681 13 q 606 119 622 67 q 590 257 590 171 l 590 317 q 606 455 590 403 q 651 535 622 507 q 722 571 681 563 q 817 579 764 579 l 869 579 q 964 571 922 579 q 1035 535 1006 563 q 1079 455 1064 507 q 1094 317 1094 403 l 1094 257 q 1079 119 1094 171 q 1035 40 1064 67 q 964 4 1006 13 q 869 -4 922 -4 l 817 -4 m 1378 -4 q 1284 4 1326 -4 q 1213 40 1242 13 q 1167 119 1183 67 q 1151 257 1151 171 l 1151 317 q 1167 455 1151 403 q 1213 535 1183 507 q 1284 571 1242 563 q 1378 579 1326 579 l 1432 579 q 1526 571 1485 579 q 1596 535 1567 563 q 1640 455 1625 507 q 1656 317 1656 403 l 1656 257 q 1640 119 1656 171 q 1596 40 1625 67 q 1526 4 1567 13 q 1432 -4 1485 -4 l 1378 -4 m 861 150 q 892 152 881 150 q 908 165 903 154 q 915 197 914 175 q 915 257 915 218 l 915 317 q 915 377 915 356 q 908 409 914 399 q 892 422 903 419 q 861 424 881 424 l 822 424 q 792 422 803 424 q 776 409 781 419 q 769 377 771 399 q 768 317 768 356 l 768 257 q 769 197 768 218 q 776 165 771 175 q 792 152 781 154 q 822 150 803 150 l 861 150 m 1424 150 q 1454 152 1443 150 q 1471 165 1465 154 q 1477 197 1476 175 q 1478 257 1478 218 l 1478 317 q 1477 377 1478 356 q 1471 409 1476 399 q 1454 422 1465 419 q 1424 424 1443 424 l 1383 424 q 1353 422 1364 424 q 1337 409 1342 419 q 1331 377 1332 399 q 1331 317 1331 356 l 1331 257 q 1331 197 1331 218 q 1337 165 1332 175 q 1353 152 1342 154 q 1383 150 1364 150 l 1424 150 m 394 301 l 576 301 l 450 -10 l 269 -10 l 394 301 z "},"§":{"ha":450,"x_min":25,"x_max":425,"o":"m 272 813 l 260 813 q 217 807 228 813 q 207 781 207 801 q 225 735 207 760 q 286 671 243 711 q 336 622 311 647 q 381 567 361 596 q 413 508 401 539 q 425 442 425 476 q 409 353 425 386 q 368 300 393 319 q 409 241 393 272 q 425 175 425 210 q 403 74 425 110 q 349 22 381 39 q 281 3 317 6 q 218 0 246 0 l 93 0 q 38 13 50 0 q 25 68 25 25 l 25 197 l 171 197 l 171 140 l 181 140 q 238 147 225 140 q 251 175 251 154 q 228 227 251 199 q 167 292 204 256 q 120 338 144 314 q 76 390 96 363 q 44 447 57 417 q 32 513 32 478 q 47 606 32 572 q 88 658 63 640 q 49 716 64 686 q 33 781 33 746 q 50 876 33 842 q 94 928 67 911 q 155 949 121 944 q 222 953 189 953 l 346 953 q 401 940 388 953 q 414 885 414 928 l 414 756 l 272 756 l 272 813 m 256 411 q 275 442 275 417 q 256 489 275 464 q 206 544 238 514 q 182 513 182 540 q 199 470 182 493 q 256 411 215 447 z "},"μ":{"ha":608,"x_min":4,"x_max":606,"o":"m 61 540 l 4 540 l 4 686 l 231 686 l 231 240 q 232 188 231 207 q 238 160 233 169 q 253 148 243 150 q 282 146 264 146 l 328 146 q 356 148 346 146 q 370 160 365 150 q 376 188 375 169 q 378 240 378 207 l 378 540 l 321 540 l 321 686 l 547 686 l 547 146 l 606 146 l 606 0 l 396 0 l 383 43 q 319 6 358 11 q 240 0 279 0 l 231 0 l 231 -247 l 61 -247 l 61 540 z "},"&":{"ha":694,"x_min":33,"x_max":675,"o":"m 668 482 l 668 336 l 606 336 l 606 331 q 598 253 606 296 q 579 185 590 211 q 638 149 599 149 q 659 149 650 149 q 675 151 668 150 l 675 1 q 604 -8 638 -8 q 469 53 522 -8 q 438 27 454 38 q 399 10 421 17 q 348 2 376 4 q 279 0 319 0 q 163 13 210 0 q 87 54 115 25 q 46 131 58 83 q 33 246 33 178 l 33 292 q 68 444 33 390 q 186 528 103 499 q 136 642 154 581 q 118 758 118 704 q 172 903 118 853 q 325 953 225 953 q 477 903 422 953 q 532 765 532 854 q 396 507 532 607 l 458 361 l 458 464 q 462 478 458 475 q 476 482 465 482 l 668 482 m 324 624 q 365 678 347 639 q 382 761 382 718 q 369 815 382 794 q 333 835 357 835 q 285 768 285 835 q 297 694 285 738 q 324 624 308 651 m 265 396 q 242 381 251 389 q 228 358 233 372 q 219 323 222 344 q 217 268 217 301 l 217 256 q 221 192 217 217 q 235 154 225 168 q 264 135 246 140 q 311 129 282 129 q 382 163 357 129 l 265 396 z "},"ˆ":{"ha":471,"x_min":72,"x_max":399,"o":"m 72 876 l 235 936 l 399 876 l 399 731 l 235 790 l 72 731 l 72 876 z "},"ˇ":{"ha":471,"x_min":72,"x_max":399,"o":"m 72 929 l 235 871 l 399 929 l 399 783 l 235 725 l 72 783 l 72 929 z "},"¨":{"ha":485,"x_min":67,"x_max":418,"o":"m 67 889 l 218 889 l 218 731 l 67 731 l 67 889 m 265 889 l 418 889 l 418 731 l 265 731 l 265 889 z "},"˙":{"ha":286,"x_min":38,"x_max":249,"o":"m 38 835 q 69 908 38 878 q 143 939 100 939 q 218 908 188 939 q 249 835 249 878 q 218 760 249 790 q 143 729 188 729 q 69 760 100 729 q 38 835 38 790 z "},"´":{"ha":376,"x_min":43,"x_max":333,"o":"m 154 942 l 333 942 l 188 731 l 43 731 l 154 942 z "},"Ó":{"ha":681,"x_min":51,"x_max":628,"o":"m 311 -3 q 205 8 253 -3 q 123 62 157 18 q 70 194 89 106 q 51 436 51 282 l 51 506 q 70 748 51 660 q 123 880 89 836 q 205 934 157 924 q 311 944 253 944 l 371 944 q 476 934 429 944 q 558 881 524 924 q 610 749 592 838 q 628 506 628 661 l 628 436 q 609 192 628 281 q 557 61 590 104 q 476 8 524 18 q 369 -3 428 -3 l 311 -3 m 263 172 q 288 158 274 161 q 326 154 301 154 l 354 154 q 393 158 379 154 q 418 172 407 161 q 441 252 436 193 q 446 436 446 311 l 446 506 q 441 690 446 631 q 418 769 436 749 q 393 785 407 782 q 354 788 379 788 l 326 788 q 288 785 301 788 q 263 769 274 782 q 249 741 254 760 q 240 691 243 722 q 235 614 236 660 q 235 506 235 568 l 235 436 q 240 252 235 311 q 263 172 244 193 m 385 1197 l 564 1197 l 418 986 l 274 986 l 385 1197 z "},"Ô":{"ha":681,"x_min":51,"x_max":628,"o":"m 311 -3 q 205 8 253 -3 q 123 62 157 18 q 70 194 89 106 q 51 436 51 282 l 51 506 q 70 748 51 660 q 123 880 89 836 q 205 934 157 924 q 311 944 253 944 l 371 944 q 476 934 429 944 q 558 881 524 924 q 610 749 592 838 q 628 506 628 661 l 628 436 q 609 192 628 281 q 557 61 590 104 q 476 8 524 18 q 369 -3 428 -3 l 311 -3 m 263 172 q 288 158 274 161 q 326 154 301 154 l 354 154 q 393 158 379 154 q 418 172 407 161 q 441 252 436 193 q 446 436 446 311 l 446 506 q 441 690 446 631 q 418 769 436 749 q 393 785 407 782 q 354 788 379 788 l 326 788 q 288 785 301 788 q 263 769 274 782 q 249 741 254 760 q 240 691 243 722 q 235 614 236 660 q 235 506 235 568 l 235 436 q 240 252 235 311 q 263 172 244 193 m 178 1132 l 340 1192 l 504 1132 l 504 986 l 340 1046 l 178 986 l 178 1132 z "},"Ö":{"ha":681,"x_min":51,"x_max":628,"o":"m 311 -3 q 205 8 253 -3 q 123 62 157 18 q 70 194 89 106 q 51 436 51 282 l 51 506 q 70 748 51 660 q 123 880 89 836 q 205 934 157 924 q 311 944 253 944 l 371 944 q 476 934 429 944 q 558 881 524 924 q 610 749 592 838 q 628 506 628 661 l 628 436 q 609 192 628 281 q 557 61 590 104 q 476 8 524 18 q 369 -3 428 -3 l 311 -3 m 263 172 q 288 158 274 161 q 326 154 301 154 l 354 154 q 393 158 379 154 q 418 172 407 161 q 441 252 436 193 q 446 436 446 311 l 446 506 q 441 690 446 631 q 418 769 436 749 q 393 785 407 782 q 354 788 379 788 l 326 788 q 288 785 301 788 q 263 769 274 782 q 249 741 254 760 q 240 691 243 722 q 235 614 236 660 q 235 506 235 568 l 235 436 q 240 252 235 311 q 263 172 244 193 m 165 1144 l 317 1144 l 317 986 l 165 986 l 165 1144 m 364 1144 l 517 1144 l 517 986 l 364 986 l 364 1144 z "},"`":{"ha":376,"x_min":43,"x_max":333,"o":"m 43 942 l 224 942 l 333 731 l 189 731 l 43 942 z "},"Ò":{"ha":681,"x_min":51,"x_max":628,"o":"m 311 -3 q 205 8 253 -3 q 123 62 157 18 q 70 194 89 106 q 51 436 51 282 l 51 506 q 70 748 51 660 q 123 880 89 836 q 205 934 157 924 q 311 944 253 944 l 371 944 q 476 934 429 944 q 558 881 524 924 q 610 749 592 838 q 628 506 628 661 l 628 436 q 609 192 628 281 q 557 61 590 104 q 476 8 524 18 q 369 -3 428 -3 l 311 -3 m 263 172 q 288 158 274 161 q 326 154 301 154 l 354 154 q 393 158 379 154 q 418 172 407 161 q 441 252 436 193 q 446 436 446 311 l 446 506 q 441 690 446 631 q 418 769 436 749 q 393 785 407 782 q 354 788 379 788 l 326 788 q 288 785 301 788 q 263 769 274 782 q 249 741 254 760 q 240 691 243 722 q 235 614 236 660 q 235 506 235 568 l 235 436 q 240 252 235 311 q 263 172 244 193 m 121 1197 l 301 1197 l 411 986 l 267 986 l 121 1197 z "},"˝":{"ha":546,"x_min":53,"x_max":471,"o":"m 125 914 l 282 914 l 174 731 l 53 731 l 125 914 m 314 914 l 471 914 l 364 731 l 242 731 l 314 914 z "},"˘":{"ha":493,"x_min":54,"x_max":439,"o":"m 199 907 q 202 881 200 892 q 206 868 204 871 q 217 854 210 861 q 246 847 224 847 q 276 853 268 847 q 288 868 283 860 q 291 881 289 869 q 294 907 293 892 l 439 907 q 412 808 431 843 q 367 755 393 772 q 310 734 340 738 q 246 731 279 731 l 244 731 q 180 734 211 731 q 124 755 149 738 q 81 808 99 772 q 54 907 63 843 l 199 907 z "},"˚":{"ha":326,"x_min":53,"x_max":275,"o":"m 53 849 q 85 927 53 894 q 164 960 118 960 q 242 927 210 960 q 275 849 275 894 q 242 770 275 803 q 164 738 210 738 q 85 770 118 738 q 53 849 53 803 m 138 849 q 145 830 138 838 q 164 822 153 822 q 183 830 175 822 q 190 849 190 838 q 183 867 190 860 q 164 875 175 875 q 138 849 138 875 z "},"˜":{"ha":551,"x_min":53,"x_max":499,"o":"m 53 746 q 93 874 64 828 q 190 919 122 919 q 232 913 211 919 q 271 900 253 907 q 303 887 289 893 q 326 881 318 881 q 349 888 342 881 q 361 924 357 896 l 499 900 q 458 774 488 819 q 361 728 429 728 q 320 734 340 728 q 282 748 300 740 q 249 762 264 756 q 225 768 235 768 q 202 760 210 768 q 190 724 194 751 l 53 746 z "},"¸":{"ha":447,"x_min":76,"x_max":371,"o":"m 114 -168 q 168 -183 140 -183 q 203 -173 190 -183 q 217 -147 217 -162 q 195 -108 217 -124 q 125 -86 174 -92 l 94 -58 l 118 71 l 263 71 l 246 -24 q 340 -67 308 -32 q 371 -151 371 -103 q 329 -247 371 -208 q 206 -285 288 -285 q 143 -276 175 -285 q 76 -251 111 -267 l 114 -168 z "},"˛":{"ha":492,"x_min":129,"x_max":363,"o":"m 321 -261 q 175 -233 221 -261 q 129 -156 129 -204 q 148 -82 129 -122 q 203 0 167 -42 l 350 0 q 331 -20 342 -7 q 310 -48 319 -33 q 293 -78 300 -62 q 286 -107 286 -94 q 296 -131 286 -121 q 332 -140 306 -140 l 363 -140 l 363 -261 l 321 -261 z "},"°":{"ha":342,"x_min":38,"x_max":311,"o":"m 174 679 q 122 690 146 679 q 78 720 97 701 q 49 764 60 739 q 38 817 38 789 q 77 913 38 874 q 174 953 117 953 q 272 913 232 953 q 311 817 311 874 q 300 764 311 789 q 270 720 289 739 q 226 690 251 701 q 174 679 201 679 m 174 772 q 203 785 190 772 q 217 817 217 799 q 203 847 217 833 q 174 860 190 860 q 144 847 157 860 q 132 815 132 833 q 145 785 132 799 q 174 772 158 772 z "},"~":{"ha":539,"x_min":24,"x_max":514,"o":"m 24 415 q 81 521 46 478 q 175 564 117 564 q 230 556 204 564 q 278 540 256 549 q 322 523 301 531 q 363 515 342 515 q 399 526 385 515 q 424 565 413 538 l 514 517 q 460 418 497 458 q 361 378 422 378 q 306 385 332 378 q 258 401 281 393 q 216 417 236 410 q 178 425 196 425 q 138 407 153 425 q 111 368 122 389 l 24 415 z "},"¶":{"ha":565,"x_min":36,"x_max":492,"o":"m 250 342 q 165 349 204 342 q 97 381 126 356 q 52 456 68 407 q 36 588 36 504 l 36 694 q 55 827 36 778 q 108 902 74 876 q 188 935 142 928 q 290 942 235 942 l 492 942 l 492 -222 l 396 -222 l 396 785 l 346 785 l 346 -222 l 250 -222 l 250 342 z "},"ß":{"ha":694,"x_min":18,"x_max":650,"o":"m 18 146 l 85 146 l 85 694 q 100 811 85 764 q 144 888 115 858 q 215 929 172 917 q 311 942 257 942 l 394 942 q 506 921 460 942 q 581 866 551 900 q 623 790 610 832 q 636 704 636 747 q 617 590 636 642 q 568 519 597 539 q 601 490 586 507 q 626 449 615 474 q 644 388 638 424 q 650 301 650 351 l 650 236 q 630 110 650 157 q 574 38 610 63 q 490 7 539 14 q 385 0 442 0 l 318 0 l 318 157 l 344 157 q 423 159 401 157 q 454 168 444 161 q 467 201 465 178 q 469 253 469 225 l 469 307 q 466 378 469 351 q 449 419 463 404 q 411 438 436 433 q 342 443 386 443 l 342 588 q 397 592 374 588 q 434 607 419 596 q 456 640 449 618 q 463 697 463 663 q 435 767 463 750 q 346 785 408 785 q 301 781 317 785 q 277 767 285 778 q 268 740 269 757 q 267 694 267 722 l 267 0 l 18 0 l 18 146 z "},"Ð":{"ha":685,"x_min":13,"x_max":632,"o":"m 31 558 l 81 558 l 81 796 l 13 796 l 13 942 l 374 942 q 480 931 432 942 q 561 877 528 921 q 613 746 594 833 q 632 503 632 658 l 632 439 q 613 196 632 283 q 561 65 594 108 q 480 10 528 21 q 374 0 432 0 l 15 0 l 15 146 l 81 146 l 81 401 l 31 401 l 31 558 m 357 157 q 397 160 383 157 q 422 175 411 164 q 436 203 431 186 q 444 250 442 219 q 448 326 447 281 q 449 439 449 372 l 449 503 q 448 615 449 569 q 444 692 447 661 q 436 740 442 722 q 422 767 431 757 q 397 782 411 779 q 357 785 383 785 l 264 785 l 264 558 l 378 558 l 378 401 l 264 401 l 264 157 l 357 157 z "},"Đ":{"ha":683,"x_min":13,"x_max":632,"o":"m 31 558 l 81 558 l 81 796 l 13 796 l 13 942 l 374 942 q 480 931 432 942 q 561 877 528 921 q 613 746 594 833 q 632 503 632 658 l 632 439 q 613 196 632 283 q 561 65 594 108 q 480 10 528 21 q 374 0 432 0 l 15 0 l 15 146 l 81 146 l 81 401 l 31 401 l 31 558 m 357 157 q 397 160 382 157 q 422 175 411 164 q 435 203 431 186 q 444 250 440 219 q 448 326 447 281 q 449 439 449 372 l 449 503 q 448 615 449 569 q 444 692 447 661 q 435 740 440 722 q 422 767 431 757 q 397 782 411 779 q 357 785 382 785 l 264 785 l 264 558 l 381 558 l 381 401 l 264 401 l 264 157 l 357 157 z "},"¥":{"ha":642,"x_min":10,"x_max":632,"o":"m 219 340 l 82 340 l 82 486 l 172 486 l 71 796 l 10 796 l 10 942 l 300 942 l 300 796 l 271 796 l 315 622 l 322 556 l 329 622 l 374 796 l 346 796 l 346 942 l 632 942 l 632 796 l 571 796 l 469 486 l 561 486 l 561 340 l 422 340 l 413 310 l 413 285 l 561 285 l 561 139 l 413 139 l 413 0 l 229 0 l 229 139 l 82 139 l 82 285 l 229 285 l 229 310 l 219 340 z "},"þ":{"ha":626,"x_min":17,"x_max":581,"o":"m 360 146 q 388 148 378 146 q 403 160 399 150 q 410 188 408 169 q 411 240 411 207 l 411 446 q 410 498 411 479 q 403 526 408 517 q 388 538 399 536 q 360 540 378 540 l 306 540 q 277 538 288 540 q 262 526 267 536 q 256 498 257 517 q 254 446 254 479 l 254 240 q 256 188 254 207 q 262 160 257 169 q 277 148 267 150 q 306 146 288 146 l 360 146 m 17 953 l 254 953 l 254 644 q 283 668 267 660 q 317 681 299 676 q 354 685 335 685 q 393 686 374 686 l 413 686 q 481 683 450 686 q 535 665 513 681 q 569 614 557 649 q 581 514 581 579 l 581 174 q 569 73 581 108 q 535 22 557 38 q 481 3 513 6 q 413 0 450 0 l 393 0 q 318 6 354 0 q 254 43 282 11 l 254 -76 l 324 -76 l 324 -222 l 18 -222 l 18 -76 l 85 -76 l 85 807 l 17 807 l 17 953 z "},"Þ":{"ha":653,"x_min":13,"x_max":617,"o":"m 307 347 q 373 349 347 347 q 413 363 399 351 q 433 397 428 374 q 438 463 438 419 l 438 513 q 433 579 438 556 q 413 614 428 603 q 373 627 399 625 q 306 629 347 629 l 264 629 l 264 347 l 307 347 m 13 942 l 264 942 l 264 781 l 328 781 q 449 774 396 781 q 540 741 503 767 q 597 666 578 715 q 617 532 617 617 l 617 449 q 597 316 617 365 q 540 241 578 267 q 449 208 503 215 q 328 201 396 201 l 264 201 l 264 146 l 336 146 l 336 0 l 15 0 l 15 146 l 81 146 l 81 796 l 13 796 l 13 942 z "},"Õ":{"ha":681,"x_min":51,"x_max":628,"o":"m 311 -3 q 205 8 253 -3 q 123 62 157 18 q 70 194 89 106 q 51 436 51 282 l 51 506 q 70 748 51 660 q 123 880 89 836 q 205 934 157 924 q 311 944 253 944 l 371 944 q 476 934 429 944 q 558 881 524 924 q 610 749 592 838 q 628 506 628 661 l 628 436 q 609 192 628 281 q 557 61 590 104 q 476 8 524 18 q 369 -3 428 -3 l 311 -3 m 263 172 q 288 158 274 161 q 326 154 301 154 l 354 154 q 393 158 379 154 q 418 172 407 161 q 441 252 436 193 q 446 436 446 311 l 446 506 q 441 690 446 631 q 418 769 436 749 q 393 785 407 782 q 354 788 379 788 l 326 788 q 288 785 301 788 q 263 769 274 782 q 249 741 254 760 q 240 691 243 722 q 235 614 236 660 q 235 506 235 568 l 235 436 q 240 252 235 311 q 263 172 244 193 m 118 1001 q 158 1129 129 1083 q 256 1175 188 1175 q 297 1169 276 1175 q 336 1156 318 1163 q 369 1142 354 1149 q 392 1136 383 1136 q 415 1144 407 1136 q 426 1179 422 1151 l 564 1156 q 524 1029 553 1075 q 426 983 494 983 q 385 990 406 983 q 347 1003 365 996 q 315 1017 329 1011 q 290 1024 300 1024 q 267 1015 275 1024 q 256 979 260 1007 l 118 1001 z "},"Ž":{"ha":571,"x_min":32,"x_max":540,"o":"m 32 138 l 336 785 l 206 785 l 206 650 l 50 650 l 50 942 l 533 942 l 533 813 l 225 157 l 385 157 l 385 292 l 540 292 l 540 0 l 32 0 l 32 138 m 122 1185 l 285 1126 l 449 1185 l 449 1039 l 285 981 l 122 1039 l 122 1185 z "},"ƒ":{"ha":411,"x_min":-42,"x_max":399,"o":"m -42 -104 q 33 -99 7 -104 q 71 -83 58 -94 q 89 -54 86 -69 q 92 -15 92 -39 l 92 539 l 18 539 l 18 686 l 93 686 l 93 703 q 113 837 93 788 q 172 912 133 886 q 268 945 211 938 q 399 953 325 953 l 399 810 q 324 805 350 810 q 285 789 297 800 q 268 760 271 775 q 265 721 265 744 l 265 686 l 399 686 l 399 539 l 265 539 l 265 3 q 245 -131 265 -82 q 186 -206 225 -181 q 90 -240 147 -232 q -42 -247 32 -247 l -42 -104 z "},"₿":{"ha":649,"x_min":6,"x_max":613,"o":"m 110 0 l 8 0 l 8 146 l 75 146 l 75 796 l 6 796 l 6 942 l 110 942 l 110 1085 l 261 1085 l 261 942 l 315 942 l 315 1085 l 467 1085 l 467 928 q 520 904 496 919 q 563 863 544 889 q 590 798 581 836 q 600 707 600 760 l 600 689 q 581 549 600 597 q 529 481 561 501 q 563 451 547 468 q 589 410 578 435 q 606 349 600 385 q 613 263 613 314 l 613 236 q 602 138 613 178 q 572 72 592 99 q 526 32 553 46 q 467 11 500 18 l 467 -143 l 315 -143 l 315 0 l 261 0 l 261 -143 l 110 -143 l 110 0 m 297 550 q 356 553 333 550 q 394 566 379 556 q 414 598 408 576 q 419 657 419 619 l 419 694 q 417 744 419 724 q 399 776 414 765 q 362 788 388 785 q 297 790 336 790 l 256 790 l 256 550 l 297 550 m 306 156 q 385 157 363 156 q 415 165 407 158 q 428 199 426 175 q 431 251 431 222 l 431 269 q 427 342 431 314 q 407 386 424 371 q 370 401 394 397 q 304 404 346 404 l 256 404 l 256 156 l 306 156 z "},"£":{"ha":722,"x_min":56,"x_max":701,"o":"m 78 0 l 76 0 l 56 0 l 56 157 l 60 157 q 101 160 86 157 q 126 174 115 163 q 139 196 135 182 q 146 231 143 210 q 149 284 149 253 q 150 360 150 315 l 72 360 l 72 493 l 151 493 l 151 538 q 169 760 151 679 q 219 882 186 842 q 301 932 253 922 q 408 942 349 942 l 539 942 q 573 934 565 942 q 581 900 581 926 l 581 650 l 438 650 l 438 785 l 425 785 q 384 782 399 785 q 358 768 369 779 q 344 742 350 758 q 337 701 339 726 q 334 635 335 675 q 333 538 333 596 l 333 493 l 501 493 l 501 360 l 333 360 q 325 244 331 294 q 310 157 319 194 l 444 157 q 489 159 474 157 q 512 170 504 161 q 521 199 519 179 q 522 253 522 218 l 522 294 l 701 294 l 701 254 q 685 122 701 172 q 640 45 669 72 q 565 9 610 18 q 464 0 521 0 l 78 0 z "},"ó":{"ha":585,"x_min":43,"x_max":542,"o":"m 261 -1 q 170 5 211 -1 q 101 42 129 11 q 58 136 74 72 q 43 314 43 200 l 43 375 q 58 551 43 488 q 101 644 74 614 q 170 681 129 675 q 261 688 211 688 l 328 688 q 417 681 378 688 q 485 644 457 675 q 527 551 513 614 q 542 375 542 488 l 542 314 q 527 136 542 200 q 485 42 513 72 q 417 5 457 11 q 328 -1 378 -1 l 261 -1 m 226 158 q 249 147 232 149 q 293 144 265 144 q 337 147 321 144 q 358 158 353 149 q 365 182 363 165 q 369 224 367 199 q 372 279 371 249 q 372 343 372 310 q 372 407 372 376 q 369 463 371 438 q 365 505 367 488 q 358 528 363 522 q 337 540 353 538 q 293 542 321 542 q 249 540 265 542 q 226 528 232 538 q 220 505 222 522 q 216 463 218 488 q 213 407 214 438 q 213 343 213 376 q 213 279 213 310 q 216 224 214 249 q 220 182 218 199 q 226 158 222 165 m 336 942 l 515 942 l 369 731 l 225 731 l 336 942 z "},"ô":{"ha":585,"x_min":43,"x_max":542,"o":"m 261 -1 q 170 5 211 -1 q 101 42 129 11 q 58 136 74 72 q 43 314 43 200 l 43 375 q 58 551 43 488 q 101 644 74 614 q 170 681 129 675 q 261 688 211 688 l 328 688 q 417 681 378 688 q 485 644 457 675 q 527 551 513 614 q 542 375 542 488 l 542 314 q 527 136 542 200 q 485 42 513 72 q 417 5 457 11 q 328 -1 378 -1 l 261 -1 m 226 158 q 249 147 232 149 q 293 144 265 144 q 337 147 321 144 q 358 158 353 149 q 365 182 363 165 q 369 224 367 199 q 372 279 371 249 q 372 343 372 310 q 372 407 372 376 q 369 463 371 438 q 365 505 367 488 q 358 528 363 522 q 337 540 353 538 q 293 542 321 542 q 249 540 265 542 q 226 528 232 538 q 220 505 222 522 q 216 463 218 488 q 213 407 214 438 q 213 343 213 376 q 213 279 213 310 q 216 224 214 249 q 220 182 218 199 q 226 158 222 165 m 129 876 l 292 936 l 456 876 l 456 731 l 292 790 l 129 731 l 129 876 z "},"ö":{"ha":585,"x_min":43,"x_max":542,"o":"m 261 -1 q 170 5 211 -1 q 101 42 129 11 q 58 136 74 72 q 43 314 43 200 l 43 375 q 58 551 43 488 q 101 644 74 614 q 170 681 129 675 q 261 688 211 688 l 328 688 q 417 681 378 688 q 485 644 457 675 q 527 551 513 614 q 542 375 542 488 l 542 314 q 527 136 542 200 q 485 42 513 72 q 417 5 457 11 q 328 -1 378 -1 l 261 -1 m 226 158 q 249 147 232 149 q 293 144 265 144 q 337 147 321 144 q 358 158 353 149 q 365 182 363 165 q 369 224 367 199 q 372 279 371 249 q 372 343 372 310 q 372 407 372 376 q 369 463 371 438 q 365 505 367 488 q 358 528 363 522 q 337 540 353 538 q 293 542 321 542 q 249 540 265 542 q 226 528 232 538 q 220 505 222 522 q 216 463 218 488 q 213 407 214 438 q 213 343 213 376 q 213 279 213 310 q 216 224 214 249 q 220 182 218 199 q 226 158 222 165 m 117 889 l 268 889 l 268 731 l 117 731 l 117 889 m 315 889 l 468 889 l 468 731 l 315 731 l 315 889 z "},"ò":{"ha":585,"x_min":43,"x_max":542,"o":"m 261 -1 q 170 5 211 -1 q 101 42 129 11 q 58 136 74 72 q 43 314 43 200 l 43 375 q 58 551 43 488 q 101 644 74 614 q 170 681 129 675 q 261 688 211 688 l 328 688 q 417 681 378 688 q 485 644 457 675 q 527 551 513 614 q 542 375 542 488 l 542 314 q 527 136 542 200 q 485 42 513 72 q 417 5 457 11 q 328 -1 378 -1 l 261 -1 m 226 158 q 249 147 232 149 q 293 144 265 144 q 337 147 321 144 q 358 158 353 149 q 365 182 363 165 q 369 224 367 199 q 372 279 371 249 q 372 343 372 310 q 372 407 372 376 q 369 463 371 438 q 365 505 367 488 q 358 528 363 522 q 337 540 353 538 q 293 542 321 542 q 249 540 265 542 q 226 528 232 538 q 220 505 222 522 q 216 463 218 488 q 213 407 214 438 q 213 343 213 376 q 213 279 213 310 q 216 224 214 249 q 220 182 218 199 q 226 158 222 165 m 72 942 l 253 942 l 363 731 l 218 731 l 72 942 z "},"õ":{"ha":585,"x_min":43,"x_max":542,"o":"m 261 -1 q 170 5 211 -1 q 101 42 129 11 q 58 136 74 72 q 43 314 43 200 l 43 375 q 58 551 43 488 q 101 644 74 614 q 170 681 129 675 q 261 688 211 688 l 328 688 q 417 681 378 688 q 485 644 457 675 q 527 551 513 614 q 542 375 542 488 l 542 314 q 527 136 542 200 q 485 42 513 72 q 417 5 457 11 q 328 -1 378 -1 l 261 -1 m 226 158 q 249 147 232 149 q 293 144 265 144 q 337 147 321 144 q 358 158 353 149 q 365 182 363 165 q 369 224 367 199 q 372 279 371 249 q 372 343 372 310 q 372 407 372 376 q 369 463 371 438 q 365 505 367 488 q 358 528 363 522 q 337 540 353 538 q 293 542 321 542 q 249 540 265 542 q 226 528 232 538 q 220 505 222 522 q 216 463 218 488 q 213 407 214 438 q 213 343 213 376 q 213 279 213 310 q 216 224 214 249 q 220 182 218 199 q 226 158 222 165 m 69 746 q 110 874 81 828 q 207 919 139 919 q 249 913 228 919 q 288 900 269 907 q 320 887 306 893 q 343 881 335 881 q 366 888 358 881 q 378 924 374 896 l 515 900 q 475 774 504 819 q 378 728 446 728 q 337 734 357 728 q 299 748 317 740 q 266 762 281 756 q 242 768 251 768 q 219 760 226 768 q 207 724 211 751 l 69 746 z "},"ø":{"ha":585,"x_min":40,"x_max":542,"o":"m 261 0 q 227 0 243 0 q 196 3 211 0 l 167 -58 l 40 -58 l 93 53 q 56 147 69 85 q 43 313 43 208 l 43 374 q 58 549 43 486 q 101 642 74 613 q 170 679 129 672 q 261 686 211 686 l 328 686 q 362 686 346 686 q 393 683 378 686 l 417 731 l 542 731 l 494 631 q 530 538 518 599 q 542 374 542 476 l 542 313 q 527 137 542 200 q 485 43 513 74 q 417 6 457 13 q 328 0 378 0 l 261 0 m 325 539 q 310 540 318 540 q 293 540 303 540 q 249 538 265 540 q 226 526 232 536 q 220 497 222 521 q 217 443 218 472 q 215 385 215 414 q 214 343 214 357 q 214 328 214 336 q 215 308 214 319 l 325 539 m 264 146 l 293 146 q 337 148 321 146 q 358 160 353 150 q 365 190 363 167 q 368 243 367 214 q 370 301 369 272 q 371 343 371 329 q 371 355 371 349 q 369 369 371 361 l 264 146 z "},"ž":{"ha":504,"x_min":25,"x_max":478,"o":"m 25 136 l 288 540 l 181 540 l 181 443 l 35 443 l 35 686 l 469 686 l 469 550 l 207 146 l 332 146 l 332 254 l 478 254 l 478 0 l 25 0 l 25 136 m 89 929 l 251 871 l 415 929 l 415 783 l 251 725 l 89 783 l 89 929 z "},"Ø":{"ha":681,"x_min":49,"x_max":631,"o":"m 311 -3 q 250 -1 279 -3 q 196 10 221 1 l 186 -11 l 49 -11 l 100 99 q 64 228 76 147 q 51 436 51 310 l 51 506 q 70 748 51 660 q 123 880 89 836 q 205 934 157 924 q 311 944 253 944 l 371 944 q 431 942 403 944 q 485 932 460 940 l 494 953 l 631 953 l 581 843 q 616 714 604 794 q 628 506 628 633 l 628 436 q 609 192 628 281 q 557 61 590 104 q 476 8 524 18 q 369 -3 428 -3 l 311 -3 m 413 775 q 388 785 401 783 q 354 788 375 788 l 326 788 q 288 785 301 788 q 263 769 274 782 q 249 741 254 760 q 240 691 243 722 q 235 614 236 660 q 235 506 235 568 l 235 436 l 235 392 l 413 775 m 268 167 q 292 156 278 158 q 326 154 306 154 l 354 154 q 393 158 379 154 q 418 172 407 161 q 441 252 436 193 q 446 436 446 311 l 446 506 q 445 528 446 517 q 444 550 444 539 l 268 167 z "},"Œ":{"ha":940,"x_min":51,"x_max":904,"o":"m 422 1 q 403 0 413 0 q 383 0 393 0 l 308 0 q 204 10 251 0 q 123 65 157 21 q 70 197 89 108 q 51 439 51 285 l 51 503 q 70 745 51 657 q 123 877 89 833 q 204 931 157 921 q 308 942 251 942 l 385 942 q 403 942 394 942 q 422 940 413 942 l 422 942 l 889 942 l 889 681 l 731 681 l 731 785 l 606 785 l 606 560 l 818 560 l 818 403 l 606 403 l 606 157 l 747 157 l 747 261 l 904 261 l 904 0 l 422 0 l 422 1 m 263 175 q 287 160 274 164 q 324 157 300 157 l 333 157 q 371 160 357 157 q 394 175 385 164 q 417 255 413 196 q 422 439 422 314 l 422 503 q 417 687 422 628 q 394 767 413 746 q 371 782 385 779 q 333 785 357 785 l 324 785 q 287 782 300 785 q 263 767 274 779 q 249 738 254 757 q 240 688 243 719 q 235 611 236 657 q 235 503 235 565 l 235 439 q 240 255 235 314 q 263 175 244 196 z "},"đ":{"ha":608,"x_min":49,"x_max":604,"o":"m 379 43 q 315 6 354 13 q 238 0 276 0 l 218 0 q 149 3 181 0 q 96 22 118 6 q 61 73 74 38 q 49 174 49 108 l 49 514 q 61 614 49 579 q 96 665 74 649 q 149 683 118 681 q 218 686 181 686 l 238 686 q 276 685 257 686 q 313 681 296 685 q 347 668 331 676 q 375 644 363 660 l 375 715 l 228 721 l 228 768 l 375 768 l 375 953 l 604 953 l 604 807 l 544 807 l 544 768 l 604 768 l 604 706 l 544 708 l 544 146 l 603 146 l 603 0 l 393 0 l 379 43 m 325 146 q 353 148 343 146 q 367 160 363 150 q 374 188 372 169 q 375 240 375 207 l 375 446 q 374 498 375 479 q 367 526 372 517 q 353 538 363 536 q 325 540 343 540 l 269 540 q 241 538 251 540 q 226 526 231 536 q 219 498 221 517 q 218 446 218 479 l 218 240 q 219 188 218 207 q 226 160 221 169 q 241 148 231 150 q 269 146 251 146 l 325 146 z "},"¹":{"ha":354,"x_min":74,"x_max":300,"o":"m 88 713 l 135 713 l 135 1079 l 74 1079 l 74 1189 l 264 1189 l 264 713 l 300 713 l 300 614 l 88 614 l 88 713 z "},"²":{"ha":388,"x_min":28,"x_max":354,"o":"m 31 658 q 49 774 35 725 q 83 858 63 822 q 126 921 103 894 q 169 969 149 947 q 211 1015 193 993 q 233 1065 229 1038 q 227 1078 235 1076 q 192 1079 219 1079 l 157 1079 q 146 1069 146 1079 l 146 1011 l 40 1011 l 40 1118 q 53 1176 40 1163 q 111 1189 67 1189 l 197 1189 q 257 1186 229 1189 q 307 1172 285 1183 q 342 1135 329 1160 q 354 1069 354 1111 q 330 971 354 1007 q 274 903 306 935 q 215 833 243 872 q 171 724 186 793 l 236 724 q 246 733 246 724 l 246 792 l 353 792 l 353 658 q 344 622 353 631 q 308 614 336 614 l 74 614 q 37 622 46 614 q 31 658 28 631 z "},"³":{"ha":388,"x_min":25,"x_max":353,"o":"m 132 790 l 132 732 q 142 722 132 722 l 169 722 q 203 723 193 722 q 221 726 214 724 q 226 742 225 731 q 226 769 226 754 l 226 778 q 225 819 226 803 q 213 842 224 835 q 191 850 206 849 q 153 851 176 851 l 110 851 l 110 954 l 149 954 q 203 962 188 954 q 219 1010 219 969 l 219 1038 q 217 1063 219 1053 q 208 1078 215 1072 q 169 1085 203 1085 l 157 1085 q 147 1074 147 1085 l 147 1015 l 40 1015 l 40 1118 q 53 1176 40 1163 q 111 1189 67 1189 l 192 1189 q 253 1183 225 1189 q 301 1160 281 1176 q 334 1117 322 1144 q 346 1044 346 1089 l 346 1033 q 334 947 346 976 q 303 906 322 918 q 339 862 325 889 q 353 772 353 835 l 353 758 q 340 683 353 711 q 306 639 328 654 q 252 619 283 624 q 183 614 221 614 l 97 614 q 39 627 53 614 q 25 685 25 640 l 25 790 l 132 790 z "},"™":{"ha":914,"x_min":18,"x_max":864,"o":"m 386 569 l 424 569 l 424 844 l 385 844 l 385 942 l 571 942 l 614 767 l 625 708 l 678 942 l 864 942 l 864 844 l 824 844 l 824 569 l 861 569 l 861 472 l 660 472 l 660 569 l 704 569 l 704 761 l 657 575 l 592 575 l 543 760 l 543 569 l 589 569 l 589 472 l 386 472 l 386 569 m 92 569 l 131 569 l 131 833 l 94 833 l 94 753 l 18 753 l 18 942 l 365 942 l 365 753 l 289 753 l 289 833 l 253 833 l 253 569 l 292 569 l 292 471 l 92 471 l 92 569 z "},"®":{"ha":764,"x_min":24,"x_max":690,"o":"m 357 326 q 225 354 286 326 q 119 430 164 382 q 49 543 74 478 q 24 685 24 608 q 49 825 24 760 q 119 938 74 890 q 225 1014 164 986 q 357 1042 286 1042 q 489 1014 428 1042 q 595 938 550 986 q 665 825 640 890 q 690 685 690 760 q 665 543 690 608 q 595 430 640 478 q 489 354 550 382 q 357 326 428 326 m 357 426 q 451 447 408 426 q 523 502 493 467 q 569 585 553 538 q 586 685 586 632 q 569 783 586 738 q 520 865 551 829 q 447 920 489 900 q 357 940 406 940 q 266 920 308 940 q 193 865 224 900 q 145 783 163 829 q 128 685 128 738 q 145 585 128 632 q 193 502 163 538 q 266 447 224 467 q 357 426 308 426 m 207 589 l 229 589 l 229 781 l 206 781 l 206 868 l 358 868 q 417 865 392 868 q 461 849 443 861 q 489 813 479 836 q 499 751 499 790 l 499 746 q 489 683 499 706 q 461 649 479 661 l 482 589 l 510 589 l 510 503 l 410 503 l 361 640 l 336 640 l 336 589 l 360 589 l 360 503 l 207 503 l 207 589 m 360 699 q 385 705 381 699 q 389 739 389 711 q 385 772 389 765 q 360 778 381 778 l 336 778 l 336 699 l 360 699 z "},"Æ":{"ha":875,"x_min":10,"x_max":839,"o":"m 10 146 l 57 146 l 228 942 l 822 942 l 822 681 l 665 681 l 665 785 l 599 785 l 599 560 l 790 560 l 790 403 l 599 403 l 599 157 l 681 157 l 681 261 l 839 261 l 839 0 l 343 0 l 343 146 l 415 146 l 415 258 l 258 258 l 236 146 l 303 146 l 303 0 l 10 0 l 10 146 m 415 415 l 415 785 l 363 785 l 290 415 l 415 415 z "},"©":{"ha":949,"x_min":24,"x_max":925,"o":"m 474 -12 q 295 25 378 -12 q 152 128 213 63 q 58 282 92 193 q 24 472 24 371 q 58 663 24 575 q 152 817 92 751 q 295 919 213 882 q 474 957 378 957 q 653 919 571 957 q 797 817 736 882 q 891 663 857 751 q 925 472 925 575 q 891 282 925 371 q 797 128 857 193 q 653 25 736 63 q 474 -12 571 -12 m 474 119 q 603 147 544 119 q 703 223 661 175 q 767 335 744 271 q 790 472 790 400 q 766 609 790 544 q 699 722 742 674 q 599 797 657 769 q 474 825 540 825 q 349 797 407 825 q 249 722 292 769 q 183 609 207 674 q 158 472 158 544 q 183 335 158 400 q 249 223 207 271 q 349 147 292 175 q 474 119 407 119 m 640 546 l 522 546 l 522 619 q 519 633 522 631 q 506 636 517 636 l 490 636 q 448 634 463 636 q 428 624 433 632 q 423 599 425 618 q 419 555 421 579 q 417 506 418 531 q 417 469 417 482 q 417 432 417 456 q 419 383 418 408 q 423 339 421 358 q 428 314 425 319 q 448 304 433 306 q 490 303 463 303 l 506 303 q 519 305 517 303 q 522 318 522 307 l 522 392 l 640 392 l 640 294 q 636 238 640 260 q 619 205 632 217 q 585 189 607 193 q 529 185 564 185 l 457 185 q 382 190 415 185 q 325 221 349 196 q 289 298 301 246 q 276 444 276 350 l 276 494 q 289 641 276 589 q 325 718 301 693 q 382 749 349 743 q 457 754 415 754 l 529 754 q 585 750 564 754 q 619 733 607 746 q 636 699 632 721 q 640 643 640 678 l 640 546 z "},"@":{"ha":1174,"x_min":71,"x_max":1106,"o":"m 332 -222 q 218 -214 267 -222 q 137 -177 169 -206 q 88 -94 104 -149 q 71 50 71 -40 l 71 658 q 88 803 71 749 q 137 885 104 857 q 218 923 169 914 q 332 932 267 932 l 847 932 q 961 923 913 932 q 1042 885 1010 914 q 1090 803 1074 857 q 1106 658 1106 749 l 1106 317 q 1090 172 1106 226 q 1042 90 1074 118 q 964 52 1011 61 q 854 43 917 43 l 696 43 q 665 50 672 43 q 658 81 658 57 l 658 85 q 602 48 633 53 q 532 43 571 43 l 524 43 q 455 46 486 43 q 401 65 424 49 q 367 116 379 81 q 354 217 354 151 l 354 496 q 367 597 354 561 q 401 648 379 632 q 455 667 424 664 q 524 669 486 669 l 532 669 q 569 669 551 669 q 602 664 586 668 q 632 650 618 660 q 658 622 646 640 l 671 669 l 822 669 l 822 200 l 853 200 q 892 202 878 200 q 913 215 907 204 q 921 247 919 225 q 922 307 922 268 l 922 668 q 921 728 922 707 q 913 760 919 750 q 890 773 906 771 q 846 775 874 775 l 331 775 q 288 773 303 775 q 265 760 272 771 q 256 728 257 750 q 254 668 254 707 l 254 42 q 256 -19 254 3 q 265 -51 257 -40 q 288 -63 272 -61 q 331 -65 303 -65 l 824 -65 l 824 -222 l 332 -222 m 603 189 q 631 191 621 189 q 645 203 640 193 q 651 231 650 213 q 653 283 653 250 l 653 429 q 651 481 653 463 q 645 510 650 500 q 631 522 640 519 q 603 524 621 524 l 575 524 q 547 522 557 524 q 531 510 536 519 q 525 481 526 500 q 524 429 524 463 l 524 283 q 525 231 524 250 q 531 203 526 213 q 547 191 536 193 q 575 189 557 189 l 603 189 z "},"ª":{"ha":378,"x_min":24,"x_max":375,"o":"m 219 707 q 174 703 189 706 q 150 696 160 701 q 142 667 142 690 l 142 650 q 147 626 142 631 q 185 622 153 622 q 215 628 210 622 q 219 665 219 635 l 219 707 m 224 549 q 188 526 206 531 q 133 521 169 521 q 56 549 89 521 q 24 643 24 576 l 24 667 q 28 714 24 692 q 51 753 32 736 q 109 782 69 771 q 219 794 149 793 q 218 824 218 817 q 214 836 218 832 q 189 842 210 842 l 61 842 l 61 942 l 189 942 q 253 938 225 942 q 299 916 281 935 q 328 856 318 897 q 338 740 338 815 l 338 619 l 375 619 l 375 521 l 231 521 l 224 549 m 24 481 l 375 481 l 375 378 l 24 378 l 24 481 z "},"º":{"ha":376,"x_min":25,"x_max":351,"o":"m 165 532 q 106 536 132 532 q 62 559 79 540 q 35 617 44 578 q 25 724 25 656 l 25 761 q 35 869 25 831 q 62 926 44 907 q 106 949 79 944 q 165 953 132 953 l 214 953 q 272 949 247 953 q 315 926 297 944 q 342 868 333 907 q 351 761 351 829 l 351 724 q 342 617 351 656 q 315 559 333 578 q 272 536 297 540 q 214 532 247 532 l 165 532 m 150 640 q 163 635 153 636 q 188 633 172 633 q 226 642 221 633 q 228 658 228 644 q 230 690 229 672 q 231 724 231 708 q 231 743 231 739 q 231 763 231 747 q 230 795 231 778 q 228 827 229 813 q 226 844 228 842 q 188 850 222 850 q 163 849 172 850 q 150 844 153 849 q 147 827 149 842 q 145 795 146 813 q 144 763 144 778 q 144 743 144 747 q 144 724 144 739 q 145 690 144 708 q 147 658 146 672 q 150 640 149 643 m 25 482 l 351 482 l 351 381 l 25 381 l 25 482 z "},"Ł":{"ha":549,"x_min":-42,"x_max":532,"o":"m -42 310 l 81 376 l 81 796 l 13 796 l 13 942 l 335 942 l 335 796 l 264 796 l 264 476 l 443 574 l 501 456 l 264 326 l 264 157 l 375 157 l 375 292 l 532 292 l 532 0 l 15 0 l 15 146 l 81 146 l 81 228 l 18 193 l -42 310 z "},"ł":{"ha":389,"x_min":-18,"x_max":417,"o":"m -18 371 l 90 429 l 90 807 l 33 807 l 33 953 l 264 953 l 264 522 l 358 574 l 417 456 l 264 374 l 264 247 q 267 194 264 214 q 280 163 269 174 q 309 149 290 153 q 361 146 328 146 l 361 0 l 331 0 q 233 6 275 0 q 160 38 190 11 q 112 122 129 65 q 90 281 94 179 l 42 253 l -18 371 z "},"ð":{"ha":636,"x_min":53,"x_max":611,"o":"m 397 618 q 397 638 397 629 q 396 657 397 647 l 307 619 l 307 742 l 372 769 q 347 782 361 779 q 307 785 332 785 l 272 785 q 261 774 261 785 l 261 722 l 108 722 l 108 826 q 113 885 108 863 q 131 919 118 907 q 165 937 143 932 q 224 942 188 942 l 319 942 q 386 939 354 942 q 445 925 418 936 q 494 894 472 914 q 533 838 517 874 l 611 871 l 611 747 l 564 728 q 576 538 576 651 l 576 274 q 560 128 576 182 q 512 45 544 74 q 431 8 479 17 q 317 0 382 0 l 281 0 q 192 9 233 0 q 120 43 151 18 q 71 114 89 68 q 53 233 53 160 l 53 383 q 72 492 53 453 q 119 552 90 532 q 183 578 149 572 q 250 583 218 583 l 311 583 q 356 581 335 583 q 397 572 378 579 l 397 618 m 321 157 q 365 159 349 157 q 388 172 381 161 q 396 203 394 182 q 397 264 397 225 l 397 326 q 396 387 397 365 q 388 419 394 408 q 365 431 381 429 q 321 433 349 433 l 314 433 q 269 431 285 433 q 247 419 254 429 q 238 387 239 408 q 236 326 236 365 l 236 264 q 238 203 236 225 q 247 172 239 182 q 269 159 254 161 q 314 157 285 157 l 321 157 z "},"¤":{"ha":657,"x_min":28,"x_max":629,"o":"m 328 176 q 295 178 311 176 q 264 183 279 181 l 235 126 l 60 126 l 126 257 q 55 356 82 299 q 28 481 28 414 q 53 599 28 543 q 121 694 78 654 l 60 813 l 235 813 l 257 769 q 328 778 290 778 q 399 769 365 778 l 421 813 l 596 813 l 535 696 q 604 600 579 656 q 629 481 629 544 q 602 356 629 414 q 529 256 575 297 l 596 126 l 421 126 l 392 183 q 360 178 376 181 q 328 176 344 176 m 328 333 q 381 346 356 333 q 425 379 406 358 q 456 426 444 400 q 468 482 468 453 q 456 535 468 510 q 425 578 444 560 q 381 609 406 597 q 328 621 356 621 q 274 609 300 621 q 230 578 249 597 q 200 532 211 558 q 189 476 189 506 q 201 422 189 447 q 232 376 213 396 q 276 345 251 357 q 328 333 301 333 z "},"½":{"ha":972,"x_min":74,"x_max":900,"o":"m 574 942 l 728 942 l 339 0 l 185 0 l 574 942 m 88 465 l 135 465 l 135 832 l 74 832 l 74 942 l 264 942 l 264 465 l 300 465 l 300 367 l 88 367 l 88 465 m 575 44 q 594 160 579 111 q 628 244 608 208 q 672 307 649 281 q 715 356 694 333 q 757 401 739 379 q 779 451 775 424 q 773 464 781 463 q 738 465 765 465 l 703 465 q 692 456 692 465 l 692 397 l 586 397 l 586 504 q 589 540 586 526 q 599 562 592 554 q 621 572 607 569 q 657 575 635 575 l 743 575 q 803 572 775 575 q 853 558 831 569 q 888 522 875 546 q 900 456 900 497 q 893 401 900 425 q 875 357 886 376 q 849 322 864 338 q 819 289 835 306 q 760 219 789 258 q 717 110 732 179 l 782 110 q 792 119 792 110 l 792 178 l 899 178 l 899 44 q 890 8 899 17 q 854 0 882 0 l 618 0 q 582 8 590 0 q 575 44 574 17 z "},"¼":{"ha":936,"x_min":74,"x_max":865,"o":"m 569 942 l 724 942 l 335 0 l 181 0 l 569 942 m 88 465 l 135 465 l 135 832 l 74 832 l 74 942 l 264 942 l 264 465 l 300 465 l 300 367 l 88 367 l 88 465 m 661 99 l 704 99 l 704 135 l 501 135 l 501 233 l 624 575 l 749 575 l 631 244 l 704 244 l 704 353 l 826 353 l 826 244 l 865 244 l 865 135 l 826 135 l 826 99 l 865 99 l 865 0 l 661 0 l 661 99 z "},"¾":{"ha":958,"x_min":25,"x_max":888,"o":"m 589 942 l 743 942 l 354 0 l 200 0 l 589 942 m 132 543 l 132 485 q 142 475 132 475 l 169 475 q 203 476 193 475 q 221 479 214 476 q 226 495 225 483 q 226 522 226 507 l 226 531 q 225 572 226 556 q 213 594 224 588 q 191 603 206 601 q 153 604 176 604 l 110 604 l 110 707 l 149 707 q 203 715 188 707 q 219 763 219 722 l 219 790 q 217 815 219 806 q 208 831 215 825 q 169 838 203 838 l 157 838 q 147 826 147 838 l 147 768 l 40 768 l 40 871 q 53 928 40 915 q 111 942 67 942 l 192 942 q 253 935 225 942 q 301 913 281 929 q 334 869 322 897 q 346 797 346 842 l 346 786 q 334 700 346 729 q 303 658 322 671 q 339 615 325 642 q 353 525 353 588 l 353 511 q 340 435 353 464 q 306 392 328 407 q 252 372 283 376 q 183 367 221 367 l 97 367 q 39 380 53 367 q 25 438 25 393 l 25 543 l 132 543 m 683 99 l 726 99 l 726 135 l 524 135 l 524 233 l 646 575 l 769 575 l 653 244 l 726 244 l 726 353 l 847 353 l 847 244 l 886 244 l 886 135 l 847 135 l 847 99 l 888 99 l 888 0 l 683 0 l 683 99 z "},"":{"ha":1803,"x_min":-60,"x_max":1863,"o":"m -60 296 l 63 296 q 124 654 63 494 q 297 926 186 814 q 563 1100 408 1039 q 903 1161 718 1161 q 1242 1100 1088 1161 q 1508 926 1396 1039 q 1681 654 1619 814 q 1743 296 1743 494 l 1863 296 l 1863 182 l 1190 182 q 1192 157 1190 169 q 1193 135 1193 144 l 1193 107 q 1174 -152 1193 -58 q 1122 -292 1156 -246 q 1040 -348 1088 -337 q 933 -358 992 -358 l 875 -358 q 802 -354 836 -358 q 739 -335 768 -350 q 687 -290 710 -319 q 648 -209 664 -261 q 624 -80 632 -157 q 615 107 615 -3 l 615 135 q 617 157 615 144 q 618 182 618 169 l -60 182 l -60 296 m 246 296 q 278 449 257 393 q 333 532 300 504 q 406 567 365 560 q 494 574 447 574 l 556 574 q 673 555 629 574 q 743 504 717 536 q 783 426 771 471 q 798 332 794 382 q 800 228 801 282 q 799 122 799 175 l 799 94 q 799 -19 799 28 q 803 -99 800 -67 q 813 -152 807 -132 q 826 -182 818 -172 q 851 -197 836 -194 q 890 -200 867 -200 l 918 -200 q 958 -197 943 -200 q 982 -182 972 -194 q 996 -151 990 -171 q 1005 -99 1001 -131 q 1009 -19 1008 -67 q 1010 94 1010 28 l 1010 122 q 1008 229 1010 175 q 1009 334 1006 283 q 1025 430 1013 385 q 1067 508 1038 475 q 1138 556 1094 539 q 1254 574 1182 574 l 1315 574 q 1404 567 1364 574 q 1476 532 1444 560 q 1531 449 1508 504 q 1563 296 1553 393 l 1597 296 q 1558 565 1597 443 q 1444 779 1518 686 q 1007 870 1193 817 q 682 990 821 924 q 662 984 671 988 q 643 978 653 981 q 761 924 693 951 q 897 881 829 897 q 733 860 817 860 q 490 900 618 860 q 282 652 356 807 q 208 296 208 497 l 246 296 m 360 717 l 524 775 l 686 717 l 686 588 l 524 647 l 360 588 l 360 717 m 1119 717 l 1282 775 l 1446 717 l 1446 588 l 1282 647 l 1119 588 l 1119 717 m 511 296 q 493 309 500 300 q 486 331 486 318 q 497 356 486 346 q 522 367 507 367 q 548 356 538 367 q 558 331 558 346 q 551 309 558 318 q 533 296 544 300 l 624 296 q 618 363 622 332 q 603 408 614 393 q 578 424 593 421 q 538 426 563 426 l 511 426 q 472 424 486 426 q 446 408 457 421 q 433 371 439 397 q 424 296 426 344 l 511 296 m 1272 296 q 1249 331 1249 306 q 1259 356 1249 346 q 1285 367 1269 367 q 1310 356 1300 367 q 1321 331 1321 346 q 1314 309 1321 318 q 1296 296 1307 300 l 1385 296 q 1363 408 1379 389 q 1337 424 1351 421 q 1297 426 1322 426 l 1271 426 q 1231 424 1246 426 q 1206 408 1217 421 q 1190 363 1194 393 q 1185 296 1186 332 l 1272 296 z "},"ﬁ":{"ha":696,"x_min":22,"x_max":694,"o":"m 458 953 l 640 953 l 640 794 l 458 794 l 458 953 m 35 -76 l 94 -76 l 94 539 l 22 539 l 22 686 l 96 686 l 96 703 q 116 837 96 788 q 175 912 136 886 q 271 945 214 938 q 401 953 328 953 l 401 810 q 327 805 353 810 q 289 789 301 800 q 271 760 274 775 q 268 721 268 744 l 268 686 l 636 686 l 636 146 l 694 146 l 694 0 l 403 0 l 403 146 l 463 146 l 463 565 l 268 539 l 268 -76 l 326 -76 l 326 -222 l 35 -222 l 35 -76 z "},"ﬂ":{"ha":738,"x_min":22,"x_max":726,"o":"m 35 -76 l 94 -76 l 94 539 l 22 539 l 22 686 l 96 686 l 96 703 q 116 837 96 788 q 175 912 136 886 q 271 945 214 938 q 401 953 328 953 l 629 953 l 629 244 q 632 191 629 211 q 645 160 635 171 q 674 147 656 150 q 726 143 693 143 l 726 -3 l 696 -3 q 591 4 636 -3 q 515 44 546 11 q 469 148 485 78 q 454 344 454 218 l 454 810 l 401 810 q 327 805 353 810 q 289 789 301 800 q 271 760 274 775 q 268 721 268 744 l 268 686 l 401 686 l 401 565 l 268 539 l 268 -76 l 326 -76 l 326 -222 l 35 -222 l 35 -76 z "},"Á":{"ha":696,"x_min":10,"x_max":688,"o":"m 10 146 l 74 146 l 214 796 l 150 796 l 150 942 l 453 942 l 625 146 l 688 146 l 688 0 l 401 0 l 401 146 l 446 146 l 433 214 l 265 214 l 253 146 l 294 146 l 294 0 l 10 0 l 10 146 m 403 371 l 361 600 l 349 699 l 338 600 l 296 371 l 403 371 m 393 1197 l 572 1197 l 426 986 l 282 986 l 393 1197 z "},"Â":{"ha":696,"x_min":10,"x_max":688,"o":"m 10 146 l 74 146 l 214 796 l 150 796 l 150 942 l 453 942 l 625 146 l 688 146 l 688 0 l 401 0 l 401 146 l 446 146 l 433 214 l 265 214 l 253 146 l 294 146 l 294 0 l 10 0 l 10 146 m 403 371 l 361 600 l 349 699 l 338 600 l 296 371 l 403 371 m 186 1132 l 349 1192 l 513 1132 l 513 986 l 349 1046 l 186 986 l 186 1132 z "},"À":{"ha":696,"x_min":10,"x_max":688,"o":"m 10 146 l 74 146 l 214 796 l 150 796 l 150 942 l 453 942 l 625 146 l 688 146 l 688 0 l 401 0 l 401 146 l 446 146 l 433 214 l 265 214 l 253 146 l 294 146 l 294 0 l 10 0 l 10 146 m 403 371 l 361 600 l 349 699 l 338 600 l 296 371 l 403 371 m 129 1197 l 310 1197 l 419 986 l 275 986 l 129 1197 z "},"Ä":{"ha":696,"x_min":10,"x_max":688,"o":"m 10 146 l 74 146 l 214 796 l 150 796 l 150 942 l 453 942 l 625 146 l 688 146 l 688 0 l 401 0 l 401 146 l 446 146 l 433 214 l 265 214 l 253 146 l 294 146 l 294 0 l 10 0 l 10 146 m 403 371 l 361 600 l 349 699 l 338 600 l 296 371 l 403 371 m 174 1144 l 325 1144 l 325 986 l 174 986 l 174 1144 m 372 1144 l 525 1144 l 525 986 l 372 986 l 372 1144 z "},"Å":{"ha":696,"x_min":10,"x_max":688,"o":"m 10 146 l 74 146 l 214 796 l 150 796 l 150 942 l 453 942 l 625 146 l 688 146 l 688 0 l 401 0 l 401 146 l 446 146 l 433 214 l 265 214 l 253 146 l 294 146 l 294 0 l 10 0 l 10 146 m 403 371 l 361 600 l 349 699 l 338 600 l 296 371 l 403 371 m 239 1090 q 272 1169 239 1136 q 350 1201 304 1201 q 428 1169 396 1201 q 461 1090 461 1136 q 428 1012 461 1044 q 350 979 396 979 q 272 1012 304 979 q 239 1090 239 1044 m 324 1090 q 331 1072 324 1079 q 350 1064 339 1064 q 369 1072 361 1064 q 376 1090 376 1079 q 369 1109 376 1101 q 350 1117 361 1117 q 324 1090 324 1117 z "},"Ã":{"ha":696,"x_min":10,"x_max":688,"o":"m 10 146 l 74 146 l 214 796 l 150 796 l 150 942 l 453 942 l 625 146 l 688 146 l 688 0 l 401 0 l 401 146 l 446 146 l 433 214 l 265 214 l 253 146 l 294 146 l 294 0 l 10 0 l 10 146 m 403 371 l 361 600 l 349 699 l 338 600 l 296 371 l 403 371 m 126 1001 q 167 1129 138 1083 q 264 1175 196 1175 q 306 1169 285 1175 q 344 1156 326 1163 q 377 1142 363 1149 q 400 1136 392 1136 q 423 1144 415 1136 q 435 1179 431 1151 l 572 1156 q 532 1029 561 1075 q 435 983 503 983 q 394 990 414 983 q 356 1003 374 996 q 323 1017 338 1011 q 299 1024 308 1024 q 276 1015 283 1024 q 264 979 268 1007 l 126 1001 z "},"É":{"ha":578,"x_min":11,"x_max":542,"o":"m 14 146 l 81 146 l 81 796 l 11 796 l 11 942 l 526 942 l 526 650 l 368 650 l 368 785 l 264 785 l 264 560 l 325 560 l 325 613 l 460 613 l 460 350 l 325 350 l 325 403 l 264 403 l 264 157 l 385 157 l 385 292 l 542 292 l 542 0 l 14 0 l 14 146 m 338 1197 l 517 1197 l 371 986 l 226 986 l 338 1197 z "},"Ê":{"ha":578,"x_min":11,"x_max":542,"o":"m 14 146 l 81 146 l 81 796 l 11 796 l 11 942 l 526 942 l 526 650 l 368 650 l 368 785 l 264 785 l 264 560 l 325 560 l 325 613 l 460 613 l 460 350 l 325 350 l 325 403 l 264 403 l 264 157 l 385 157 l 385 292 l 542 292 l 542 0 l 14 0 l 14 146 m 131 1132 l 293 1192 l 457 1132 l 457 986 l 293 1046 l 131 986 l 131 1132 z "},"Ë":{"ha":578,"x_min":11,"x_max":542,"o":"m 14 146 l 81 146 l 81 796 l 11 796 l 11 942 l 526 942 l 526 650 l 368 650 l 368 785 l 264 785 l 264 560 l 325 560 l 325 613 l 460 613 l 460 350 l 325 350 l 325 403 l 264 403 l 264 157 l 385 157 l 385 292 l 542 292 l 542 0 l 14 0 l 14 146 m 117 1144 l 268 1144 l 268 986 l 117 986 l 117 1144 m 315 1144 l 468 1144 l 468 986 l 315 986 l 315 1144 z "},"È":{"ha":578,"x_min":11,"x_max":542,"o":"m 14 146 l 81 146 l 81 796 l 11 796 l 11 942 l 526 942 l 526 650 l 368 650 l 368 785 l 264 785 l 264 560 l 325 560 l 325 613 l 460 613 l 460 350 l 325 350 l 325 403 l 264 403 l 264 157 l 385 157 l 385 292 l 542 292 l 542 0 l 14 0 l 14 146 m 74 1197 l 254 1197 l 364 986 l 219 986 l 74 1197 z "},"Í":{"ha":343,"x_min":13,"x_max":396,"o":"m 15 146 l 81 146 l 81 796 l 13 796 l 13 942 l 332 942 l 332 796 l 264 796 l 264 146 l 329 146 l 329 0 l 15 0 l 15 146 m 217 1197 l 396 1197 l 250 986 l 106 986 l 217 1197 z "},"Î":{"ha":343,"x_min":10,"x_max":336,"o":"m 15 146 l 81 146 l 81 796 l 13 796 l 13 942 l 332 942 l 332 796 l 264 796 l 264 146 l 329 146 l 329 0 l 15 0 l 15 146 m 10 1132 l 172 1192 l 336 1132 l 336 986 l 172 1046 l 10 986 l 10 1132 z "},"Ï":{"ha":343,"x_min":-4,"x_max":347,"o":"m 15 146 l 81 146 l 81 796 l 13 796 l 13 942 l 332 942 l 332 796 l 264 796 l 264 146 l 329 146 l 329 0 l 15 0 l 15 146 m -4 1144 l 147 1144 l 147 986 l -4 986 l -4 1144 m 194 1144 l 347 1144 l 347 986 l 194 986 l 194 1144 z "},"Ì":{"ha":343,"x_min":-47,"x_max":332,"o":"m 15 146 l 81 146 l 81 796 l 13 796 l 13 942 l 332 942 l 332 796 l 264 796 l 264 146 l 329 146 l 329 0 l 15 0 l 15 146 m -47 1197 l 133 1197 l 243 986 l 99 986 l -47 1197 z "},"Ñ":{"ha":711,"x_min":13,"x_max":699,"o":"m 15 146 l 81 146 l 81 796 l 13 796 l 13 942 l 264 942 l 450 458 l 450 796 l 381 796 l 381 942 l 699 942 l 699 796 l 633 796 l 633 -3 l 450 -3 l 264 481 l 264 146 l 332 146 l 332 0 l 15 0 l 15 146 m 121 1001 q 161 1129 132 1083 q 258 1175 190 1175 q 300 1169 279 1175 q 339 1156 321 1163 q 372 1142 357 1149 q 394 1136 386 1136 q 417 1144 410 1136 q 429 1179 425 1151 l 567 1156 q 526 1029 556 1075 q 429 983 497 983 q 388 990 408 983 q 350 1003 368 996 q 317 1017 332 1011 q 293 1024 303 1024 q 270 1015 278 1024 q 258 979 263 1007 l 121 1001 z "},"Ú":{"ha":703,"x_min":13,"x_max":690,"o":"m 13 942 l 326 942 l 326 796 l 261 796 l 261 258 q 263 198 261 219 q 272 166 264 176 q 297 153 281 156 q 344 151 314 151 l 358 151 q 406 153 389 151 q 431 166 422 156 q 440 198 439 176 q 442 258 442 219 l 442 796 l 376 796 l 376 942 l 690 942 l 690 796 l 625 796 l 625 267 q 609 122 625 176 q 560 40 593 68 q 476 3 526 11 q 358 -6 426 -6 l 346 -6 q 228 3 278 -6 q 144 40 178 11 q 94 122 111 68 q 78 267 78 176 l 78 796 l 13 796 l 13 942 m 396 1197 l 575 1197 l 429 986 l 285 986 l 396 1197 z "},"Û":{"ha":703,"x_min":13,"x_max":690,"o":"m 13 942 l 326 942 l 326 796 l 261 796 l 261 258 q 263 198 261 219 q 272 166 264 176 q 297 153 281 156 q 344 151 314 151 l 358 151 q 406 153 389 151 q 431 166 422 156 q 440 198 439 176 q 442 258 442 219 l 442 796 l 376 796 l 376 942 l 690 942 l 690 796 l 625 796 l 625 267 q 609 122 625 176 q 560 40 593 68 q 476 3 526 11 q 358 -6 426 -6 l 346 -6 q 228 3 278 -6 q 144 40 178 11 q 94 122 111 68 q 78 267 78 176 l 78 796 l 13 796 l 13 942 m 188 1132 l 350 1192 l 514 1132 l 514 986 l 350 1046 l 188 986 l 188 1132 z "},"Ü":{"ha":703,"x_min":13,"x_max":690,"o":"m 13 942 l 326 942 l 326 796 l 261 796 l 261 258 q 263 198 261 219 q 272 166 264 176 q 297 153 281 156 q 344 151 314 151 l 358 151 q 406 153 389 151 q 431 166 422 156 q 440 198 439 176 q 442 258 442 219 l 442 796 l 376 796 l 376 942 l 690 942 l 690 796 l 625 796 l 625 267 q 609 122 625 176 q 560 40 593 68 q 476 3 526 11 q 358 -6 426 -6 l 346 -6 q 228 3 278 -6 q 144 40 178 11 q 94 122 111 68 q 78 267 78 176 l 78 796 l 13 796 l 13 942 m 175 1144 l 326 1144 l 326 986 l 175 986 l 175 1144 m 374 1144 l 526 1144 l 526 986 l 374 986 l 374 1144 z "},"Ù":{"ha":703,"x_min":13,"x_max":690,"o":"m 13 942 l 326 942 l 326 796 l 261 796 l 261 258 q 263 198 261 219 q 272 166 264 176 q 297 153 281 156 q 344 151 314 151 l 358 151 q 406 153 389 151 q 431 166 422 156 q 440 198 439 176 q 442 258 442 219 l 442 796 l 376 796 l 376 942 l 690 942 l 690 796 l 625 796 l 625 267 q 609 122 625 176 q 560 40 593 68 q 476 3 526 11 q 358 -6 426 -6 l 346 -6 q 228 3 278 -6 q 144 40 178 11 q 94 122 111 68 q 78 267 78 176 l 78 796 l 13 796 l 13 942 m 131 1197 l 311 1197 l 421 986 l 276 986 l 131 1197 z "},"Ý":{"ha":664,"x_min":10,"x_max":654,"o":"m 175 146 l 240 146 l 240 310 l 74 796 l 10 796 l 10 942 l 303 942 l 303 796 l 272 796 l 326 611 l 333 543 l 340 611 l 394 796 l 364 796 l 364 942 l 654 942 l 654 796 l 592 796 l 424 310 l 424 146 l 490 146 l 490 0 l 175 0 l 175 146 m 376 1197 l 556 1197 l 410 986 l 265 986 l 376 1197 z "},"Ÿ":{"ha":664,"x_min":10,"x_max":654,"o":"m 175 146 l 240 146 l 240 310 l 74 796 l 10 796 l 10 942 l 303 942 l 303 796 l 272 796 l 326 611 l 333 543 l 340 611 l 394 796 l 364 796 l 364 942 l 654 942 l 654 796 l 592 796 l 424 310 l 424 146 l 490 146 l 490 0 l 175 0 l 175 146 m 157 1144 l 308 1144 l 308 986 l 157 986 l 157 1144 m 356 1144 l 508 1144 l 508 986 l 356 986 l 356 1144 z "},"á":{"ha":582,"x_min":36,"x_max":576,"o":"m 356 43 q 296 7 326 14 q 214 0 265 0 q 144 10 176 0 q 88 42 113 19 q 50 101 64 64 q 36 193 36 138 l 36 243 q 43 317 36 282 q 81 378 50 351 q 174 423 111 406 q 350 443 238 440 q 347 502 350 486 q 336 529 344 518 q 318 540 329 538 q 288 542 307 542 l 104 542 l 104 686 l 288 686 q 385 681 342 686 q 458 644 428 675 q 503 548 488 614 q 519 361 519 482 l 519 146 l 576 146 l 576 0 l 368 0 l 356 43 m 350 317 q 269 310 297 315 q 224 296 240 306 q 206 242 206 285 l 206 206 q 207 171 206 183 q 216 153 208 158 q 240 146 224 147 q 283 144 256 144 q 321 146 307 144 q 341 156 335 147 q 349 180 347 164 q 350 225 350 196 l 350 317 m 328 942 l 507 942 l 361 731 l 217 731 l 328 942 z "},"â":{"ha":582,"x_min":36,"x_max":576,"o":"m 356 43 q 296 7 326 14 q 214 0 265 0 q 144 10 176 0 q 88 42 113 19 q 50 101 64 64 q 36 193 36 138 l 36 243 q 43 317 36 282 q 81 378 50 351 q 174 423 111 406 q 350 443 238 440 q 347 502 350 486 q 336 529 344 518 q 318 540 329 538 q 288 542 307 542 l 104 542 l 104 686 l 288 686 q 385 681 342 686 q 458 644 428 675 q 503 548 488 614 q 519 361 519 482 l 519 146 l 576 146 l 576 0 l 368 0 l 356 43 m 350 317 q 269 310 297 315 q 224 296 240 306 q 206 242 206 285 l 206 206 q 207 171 206 183 q 216 153 208 158 q 240 146 224 147 q 283 144 256 144 q 321 146 307 144 q 341 156 335 147 q 349 180 347 164 q 350 225 350 196 l 350 317 m 124 876 l 286 936 l 450 876 l 450 731 l 286 790 l 124 731 l 124 876 z "},"ä":{"ha":582,"x_min":36,"x_max":576,"o":"m 356 43 q 296 7 326 14 q 214 0 265 0 q 144 10 176 0 q 88 42 113 19 q 50 101 64 64 q 36 193 36 138 l 36 243 q 43 317 36 282 q 81 378 50 351 q 174 423 111 406 q 350 443 238 440 q 347 502 350 486 q 336 529 344 518 q 318 540 329 538 q 288 542 307 542 l 104 542 l 104 686 l 288 686 q 385 681 342 686 q 458 644 428 675 q 503 548 488 614 q 519 361 519 482 l 519 146 l 576 146 l 576 0 l 368 0 l 356 43 m 350 317 q 269 310 297 315 q 224 296 240 306 q 206 242 206 285 l 206 206 q 207 171 206 183 q 216 153 208 158 q 240 146 224 147 q 283 144 256 144 q 321 146 307 144 q 341 156 335 147 q 349 180 347 164 q 350 225 350 196 l 350 317 m 104 889 l 256 889 l 256 731 l 104 731 l 104 889 m 303 889 l 456 889 l 456 731 l 303 731 l 303 889 z "},"à":{"ha":582,"x_min":36,"x_max":576,"o":"m 356 43 q 296 7 326 14 q 214 0 265 0 q 144 10 176 0 q 88 42 113 19 q 50 101 64 64 q 36 193 36 138 l 36 243 q 43 317 36 282 q 81 378 50 351 q 174 423 111 406 q 350 443 238 440 q 347 502 350 486 q 336 529 344 518 q 318 540 329 538 q 288 542 307 542 l 104 542 l 104 686 l 288 686 q 385 681 342 686 q 458 644 428 675 q 503 548 488 614 q 519 361 519 482 l 519 146 l 576 146 l 576 0 l 368 0 l 356 43 m 350 317 q 269 310 297 315 q 224 296 240 306 q 206 242 206 285 l 206 206 q 207 171 206 183 q 216 153 208 158 q 240 146 224 147 q 283 144 256 144 q 321 146 307 144 q 341 156 335 147 q 349 180 347 164 q 350 225 350 196 l 350 317 m 63 942 l 243 942 l 353 731 l 208 731 l 63 942 z "},"å":{"ha":582,"x_min":36,"x_max":576,"o":"m 356 43 q 296 7 326 14 q 214 0 265 0 q 144 10 176 0 q 88 42 113 19 q 50 101 64 64 q 36 193 36 138 l 36 243 q 43 317 36 282 q 81 378 50 351 q 174 423 111 406 q 350 443 238 440 q 347 502 350 486 q 336 529 344 518 q 318 540 329 538 q 288 542 307 542 l 104 542 l 104 686 l 288 686 q 385 681 342 686 q 458 644 428 675 q 503 548 488 614 q 519 361 519 482 l 519 146 l 576 146 l 576 0 l 368 0 l 356 43 m 350 317 q 269 310 297 315 q 224 296 240 306 q 206 242 206 285 l 206 206 q 207 171 206 183 q 216 153 208 158 q 240 146 224 147 q 283 144 256 144 q 321 146 307 144 q 341 156 335 147 q 349 180 347 164 q 350 225 350 196 l 350 317 m 186 849 q 219 927 186 894 q 297 960 251 960 q 376 927 343 960 q 408 849 408 894 q 376 770 408 803 q 297 738 343 738 q 219 770 251 738 q 186 849 186 803 m 271 849 q 278 830 271 838 q 297 822 286 822 q 316 830 308 822 q 324 849 324 838 q 316 867 324 860 q 297 875 308 875 q 271 849 271 875 z "},"ã":{"ha":582,"x_min":36,"x_max":576,"o":"m 356 43 q 296 7 326 14 q 214 0 265 0 q 144 10 176 0 q 88 42 113 19 q 50 101 64 64 q 36 193 36 138 l 36 243 q 43 317 36 282 q 81 378 50 351 q 174 423 111 406 q 350 443 238 440 q 347 502 350 486 q 336 529 344 518 q 318 540 329 538 q 288 542 307 542 l 104 542 l 104 686 l 288 686 q 385 681 342 686 q 458 644 428 675 q 503 548 488 614 q 519 361 519 482 l 519 146 l 576 146 l 576 0 l 368 0 l 356 43 m 350 317 q 269 310 297 315 q 224 296 240 306 q 206 242 206 285 l 206 206 q 207 171 206 183 q 216 153 208 158 q 240 146 224 147 q 283 144 256 144 q 321 146 307 144 q 341 156 335 147 q 349 180 347 164 q 350 225 350 196 l 350 317 m 86 746 q 126 874 97 828 q 224 919 156 919 q 265 913 244 919 q 304 900 286 907 q 337 887 322 893 q 360 881 351 881 q 383 888 375 881 q 394 924 390 896 l 532 900 q 492 774 521 819 q 394 728 463 728 q 353 734 374 728 q 315 748 333 740 q 283 762 297 756 q 258 768 268 768 q 235 760 243 768 q 224 724 228 751 l 86 746 z "},"ç":{"ha":510,"x_min":43,"x_max":486,"o":"m 486 432 l 340 432 l 340 524 q 338 538 340 535 q 324 540 335 540 l 303 540 q 253 538 271 540 q 231 526 236 536 q 224 497 226 521 q 219 443 221 472 q 216 385 217 414 q 215 343 215 357 q 216 301 215 329 q 219 243 217 272 q 224 190 221 214 q 231 160 226 167 q 253 148 236 150 q 303 146 271 146 l 324 146 q 338 149 335 146 q 340 163 340 151 l 340 254 l 486 254 l 486 111 q 482 55 486 76 q 465 21 478 33 q 431 4 453 8 q 375 0 410 0 l 263 0 q 172 6 213 0 q 102 43 131 13 q 58 137 74 74 q 43 313 43 200 l 43 374 q 58 549 43 486 q 102 643 74 613 q 172 680 131 674 q 263 686 213 686 l 375 686 q 431 682 410 686 q 465 665 453 678 q 482 631 478 653 q 486 575 486 610 l 486 432 m 190 -168 q 244 -183 217 -183 q 280 -173 267 -183 q 293 -147 293 -162 q 272 -108 293 -124 q 201 -86 250 -92 l 171 -58 l 194 71 l 339 71 l 322 -24 q 416 -67 385 -32 q 447 -151 447 -103 q 406 -247 447 -208 q 282 -285 364 -285 q 219 -276 251 -285 q 153 -251 188 -267 l 190 -168 z "},"í":{"ha":307,"x_min":10,"x_max":363,"o":"m 10 146 l 71 146 l 71 540 l 11 540 l 11 686 l 244 686 l 244 146 l 301 146 l 301 0 l 10 0 l 10 146 m 183 942 l 363 942 l 217 731 l 72 731 l 183 942 z "},"î":{"ha":307,"x_min":-24,"x_max":303,"o":"m 10 146 l 71 146 l 71 540 l 11 540 l 11 686 l 244 686 l 244 146 l 301 146 l 301 0 l 10 0 l 10 146 m -24 876 l 139 936 l 303 876 l 303 731 l 139 790 l -24 731 l -24 876 z "},"ï":{"ha":307,"x_min":-37,"x_max":314,"o":"m 10 146 l 71 146 l 71 540 l 11 540 l 11 686 l 244 686 l 244 146 l 301 146 l 301 0 l 10 0 l 10 146 m -37 889 l 114 889 l 114 731 l -37 731 l -37 889 m 161 889 l 314 889 l 314 731 l 161 731 l 161 889 z "},"ì":{"ha":307,"x_min":-81,"x_max":301,"o":"m 10 146 l 71 146 l 71 540 l 11 540 l 11 686 l 244 686 l 244 146 l 301 146 l 301 0 l 10 0 l 10 146 m -81 942 l 100 942 l 210 731 l 65 731 l -81 942 z "},"ñ":{"ha":614,"x_min":6,"x_max":610,"o":"m 7 146 l 64 146 l 64 540 l 6 540 l 6 686 l 215 686 l 228 643 q 293 681 253 675 q 372 686 333 686 l 383 686 q 452 683 421 686 q 506 665 483 681 q 540 614 528 649 q 553 514 553 579 l 553 146 l 610 146 l 610 0 l 383 0 l 383 446 q 382 498 383 479 q 376 526 381 517 q 360 538 371 536 q 332 540 350 540 l 285 540 q 256 538 267 540 q 241 526 246 536 q 235 498 236 517 q 233 446 233 479 l 233 146 l 290 146 l 290 0 l 7 0 l 7 146 m 85 746 q 125 874 96 828 q 222 919 154 919 q 264 913 243 919 q 303 900 285 907 q 335 887 321 893 q 358 881 350 881 q 381 888 374 881 q 393 924 389 896 l 531 900 q 490 774 519 819 q 393 728 461 728 q 352 734 372 728 q 314 748 332 740 q 281 762 296 756 q 257 768 267 768 q 234 760 242 768 q 222 724 226 751 l 85 746 z "},"ú":{"ha":610,"x_min":4,"x_max":606,"o":"m 383 43 q 319 6 358 11 q 240 0 279 0 l 231 0 q 162 3 193 0 q 108 22 131 6 q 74 73 86 38 q 61 174 61 108 l 61 540 l 4 540 l 4 686 l 231 686 l 231 240 q 232 188 231 207 q 239 160 233 169 q 254 148 244 150 q 282 146 264 146 l 328 146 q 356 148 346 146 q 372 160 367 150 q 378 188 376 169 q 379 240 379 207 l 379 540 l 322 540 l 322 686 l 549 686 l 549 146 l 606 146 l 606 0 l 397 0 l 383 43 m 321 942 l 500 942 l 354 731 l 210 731 l 321 942 z "},"û":{"ha":610,"x_min":4,"x_max":606,"o":"m 383 43 q 319 6 358 11 q 240 0 279 0 l 231 0 q 162 3 193 0 q 108 22 131 6 q 74 73 86 38 q 61 174 61 108 l 61 540 l 4 540 l 4 686 l 231 686 l 231 240 q 232 188 231 207 q 239 160 233 169 q 254 148 244 150 q 282 146 264 146 l 328 146 q 356 148 346 146 q 372 160 367 150 q 378 188 376 169 q 379 240 379 207 l 379 540 l 322 540 l 322 686 l 549 686 l 549 146 l 606 146 l 606 0 l 397 0 l 383 43 m 114 876 l 276 936 l 440 876 l 440 731 l 276 790 l 114 731 l 114 876 z "},"ü":{"ha":610,"x_min":4,"x_max":606,"o":"m 383 43 q 319 6 358 11 q 240 0 279 0 l 231 0 q 162 3 193 0 q 108 22 131 6 q 74 73 86 38 q 61 174 61 108 l 61 540 l 4 540 l 4 686 l 231 686 l 231 240 q 232 188 231 207 q 239 160 233 169 q 254 148 244 150 q 282 146 264 146 l 328 146 q 356 148 346 146 q 372 160 367 150 q 378 188 376 169 q 379 240 379 207 l 379 540 l 322 540 l 322 686 l 549 686 l 549 146 l 606 146 l 606 0 l 397 0 l 383 43 m 100 889 l 251 889 l 251 731 l 100 731 l 100 889 m 299 889 l 451 889 l 451 731 l 299 731 l 299 889 z "},"ù":{"ha":610,"x_min":4,"x_max":606,"o":"m 383 43 q 319 6 358 11 q 240 0 279 0 l 231 0 q 162 3 193 0 q 108 22 131 6 q 74 73 86 38 q 61 174 61 108 l 61 540 l 4 540 l 4 686 l 231 686 l 231 240 q 232 188 231 207 q 239 160 233 169 q 254 148 244 150 q 282 146 264 146 l 328 146 q 356 148 346 146 q 372 160 367 150 q 378 188 376 169 q 379 240 379 207 l 379 540 l 322 540 l 322 686 l 549 686 l 549 146 l 606 146 l 606 0 l 397 0 l 383 43 m 57 942 l 238 942 l 347 731 l 203 731 l 57 942 z "},"ý":{"ha":583,"x_min":3,"x_max":581,"o":"m 100 -90 q 127 -95 115 -93 q 149 -97 139 -97 q 172 -92 163 -97 q 194 -58 183 -83 q 214 0 206 -32 l 190 0 l 60 540 l 3 540 l 3 686 l 261 686 l 261 540 l 228 540 l 274 333 l 290 219 l 308 333 l 357 540 l 324 540 l 324 686 l 581 686 l 581 540 l 525 540 l 403 46 q 358 -103 381 -44 q 310 -194 335 -161 q 256 -240 285 -228 q 194 -253 228 -253 q 147 -249 172 -253 q 94 -239 122 -246 l 67 -232 l 100 -90 m 336 942 l 515 942 l 369 731 l 225 731 l 336 942 z "},"ÿ":{"ha":583,"x_min":3,"x_max":581,"o":"m 100 -90 q 127 -95 115 -93 q 149 -97 139 -97 q 172 -92 163 -97 q 194 -58 183 -83 q 214 0 206 -32 l 190 0 l 60 540 l 3 540 l 3 686 l 261 686 l 261 540 l 228 540 l 274 333 l 290 219 l 308 333 l 357 540 l 324 540 l 324 686 l 581 686 l 581 540 l 525 540 l 403 46 q 358 -103 381 -44 q 310 -194 335 -161 q 256 -240 285 -228 q 194 -253 228 -253 q 147 -249 172 -253 q 94 -239 122 -246 l 67 -232 l 100 -90 m 115 889 l 267 889 l 267 731 l 115 731 l 115 889 m 314 889 l 467 889 l 467 731 l 314 731 l 314 889 z "},"Ç":{"ha":618,"x_min":51,"x_max":567,"o":"m 410 292 l 567 292 l 567 94 q 542 25 567 50 q 472 0 517 0 l 311 0 q 205 10 253 0 q 123 65 157 21 q 70 196 89 108 q 51 439 51 283 l 51 503 q 70 746 51 658 q 123 877 89 833 q 205 931 157 921 q 311 942 253 942 l 472 942 q 542 917 517 942 q 567 847 567 892 l 567 650 l 410 650 l 410 774 q 400 785 410 785 l 326 785 q 288 782 301 785 q 263 767 274 779 q 249 740 254 757 q 240 692 243 722 q 235 615 236 661 q 235 503 235 569 l 235 439 q 235 326 235 372 q 240 250 236 281 q 249 203 243 219 q 263 175 254 186 q 288 160 274 164 q 326 157 301 157 l 400 157 q 410 168 410 157 l 410 292 m 244 -168 q 299 -183 271 -183 q 334 -173 321 -183 q 347 -147 347 -162 q 326 -108 347 -124 q 256 -86 304 -92 l 225 -58 l 249 71 l 393 71 l 376 -24 q 470 -67 439 -32 q 501 -151 501 -103 q 460 -247 501 -208 q 336 -285 418 -285 q 274 -276 306 -285 q 207 -251 242 -267 l 244 -168 z "},"š":{"ha":468,"x_min":25,"x_max":443,"o":"m 171 204 l 171 158 q 182 147 171 147 l 208 147 q 249 148 236 147 q 265 154 261 149 q 273 172 272 161 q 274 199 274 182 l 274 232 q 263 274 274 264 q 213 283 253 283 q 76 324 119 283 q 33 453 33 364 l 33 515 q 49 603 33 569 q 93 656 65 638 q 158 680 121 674 q 238 686 196 686 l 268 686 q 347 680 317 686 q 394 657 378 674 q 417 610 411 640 q 424 531 424 579 l 424 483 l 278 483 l 278 528 q 267 539 278 539 l 256 539 q 228 538 238 539 q 211 533 218 538 q 202 515 204 526 q 200 489 200 504 l 200 469 q 209 428 200 439 q 260 417 218 417 q 338 410 304 417 q 395 383 372 403 q 431 331 418 364 q 443 243 443 297 l 443 182 q 426 83 443 119 q 381 28 410 47 q 310 5 351 10 q 218 0 268 0 l 182 0 q 103 6 133 0 q 55 30 72 13 q 31 78 38 47 q 25 157 25 108 l 25 204 l 171 204 m 90 929 l 253 871 l 417 929 l 417 783 l 253 725 l 90 783 l 90 929 z "},"?":{"ha":596,"x_min":31,"x_max":561,"o":"m 150 264 q 195 438 150 372 q 329 504 240 504 l 342 504 q 371 526 364 504 q 378 610 378 547 l 378 688 q 376 748 378 726 q 367 779 375 769 q 344 791 360 789 q 301 793 329 793 l 292 793 q 248 791 264 793 q 224 779 232 789 q 215 748 217 769 q 214 688 214 726 l 214 619 l 31 619 l 31 678 q 44 813 31 760 q 88 896 57 865 q 168 939 118 926 q 292 951 218 951 l 303 951 q 424 941 375 951 q 504 903 474 931 q 548 830 535 876 q 561 713 561 783 l 561 585 q 514 410 561 474 q 371 347 467 347 q 351 345 358 347 q 340 335 343 343 q 335 310 336 326 q 333 264 333 293 l 333 243 l 150 243 l 150 264 m 143 188 l 338 188 l 338 0 l 143 0 l 143 188 z "},"Š":{"ha":596,"x_min":32,"x_max":563,"o":"m 135 1185 l 297 1126 l 461 1185 l 461 1040 l 297 981 l 135 1040 l 135 1185 m 213 292 l 213 247 q 214 194 213 213 q 222 166 215 175 q 244 155 229 157 q 289 153 260 153 l 303 153 q 347 155 331 153 q 369 166 363 157 q 378 195 376 175 q 379 251 379 215 l 379 289 q 378 354 379 331 q 369 388 376 378 q 347 401 361 399 q 306 403 332 403 l 288 403 q 178 411 225 403 q 101 445 132 419 q 54 519 69 471 q 39 647 39 567 l 39 708 q 56 830 39 783 q 105 902 74 876 q 181 937 136 928 q 281 946 226 946 l 317 946 q 409 938 367 946 q 483 906 451 929 q 531 841 514 883 q 549 731 549 799 l 549 650 l 368 650 l 368 718 q 367 758 368 743 q 359 779 365 772 q 339 788 353 786 q 299 789 325 789 l 292 789 q 250 787 265 789 q 228 776 235 785 q 221 751 222 768 q 219 706 219 735 l 219 647 q 221 597 219 615 q 229 571 222 579 q 251 561 236 563 q 293 560 265 560 l 378 560 q 444 550 411 560 q 503 515 476 540 q 546 442 529 489 q 563 321 563 396 l 563 224 q 541 101 563 146 q 485 32 519 56 q 406 2 450 8 q 317 -4 361 -4 l 269 -4 q 168 5 213 -4 q 94 41 124 14 q 48 117 64 68 q 32 249 32 167 l 32 292 l 213 292 z "},"é":{"ha":560,"x_min":43,"x_max":518,"o":"m 504 207 l 504 121 q 499 60 504 83 q 481 23 494 36 q 444 5 468 10 q 383 0 421 0 l 258 0 q 156 12 197 0 q 89 58 114 24 q 53 154 64 93 q 43 313 43 215 l 43 374 q 53 526 43 465 q 88 623 63 588 q 154 673 113 658 q 260 688 196 688 l 317 688 q 414 674 375 688 q 476 626 453 660 q 508 535 499 592 q 518 393 518 479 l 518 304 q 510 274 518 281 q 479 267 503 267 l 215 267 q 219 200 215 231 q 228 160 222 169 q 245 149 231 151 q 293 146 260 146 l 347 146 q 358 156 358 146 l 358 207 l 504 207 m 357 388 q 354 480 357 444 q 346 525 351 515 q 286 540 339 540 q 226 526 233 540 q 218 479 221 515 q 215 388 215 443 l 357 388 m 333 942 l 513 942 l 367 731 l 222 731 l 333 942 z "},"ê":{"ha":560,"x_min":43,"x_max":518,"o":"m 504 207 l 504 121 q 499 60 504 83 q 481 23 494 36 q 444 5 468 10 q 383 0 421 0 l 258 0 q 156 12 197 0 q 89 58 114 24 q 53 154 64 93 q 43 313 43 215 l 43 374 q 53 526 43 465 q 88 623 63 588 q 154 673 113 658 q 260 688 196 688 l 317 688 q 414 674 375 688 q 476 626 453 660 q 508 535 499 592 q 518 393 518 479 l 518 304 q 510 274 518 281 q 479 267 503 267 l 215 267 q 219 200 215 231 q 228 160 222 169 q 245 149 231 151 q 293 146 260 146 l 347 146 q 358 156 358 146 l 358 207 l 504 207 m 357 388 q 354 480 357 444 q 346 525 351 515 q 286 540 339 540 q 226 526 233 540 q 218 479 221 515 q 215 388 215 443 l 357 388 m 125 876 l 288 936 l 451 876 l 451 731 l 288 790 l 125 731 l 125 876 z "},"ë":{"ha":560,"x_min":43,"x_max":518,"o":"m 504 207 l 504 121 q 499 60 504 83 q 481 23 494 36 q 444 5 468 10 q 383 0 421 0 l 258 0 q 156 12 197 0 q 89 58 114 24 q 53 154 64 93 q 43 313 43 215 l 43 374 q 53 526 43 465 q 88 623 63 588 q 154 673 113 658 q 260 688 196 688 l 317 688 q 414 674 375 688 q 476 626 453 660 q 508 535 499 592 q 518 393 518 479 l 518 304 q 510 274 518 281 q 479 267 503 267 l 215 267 q 219 200 215 231 q 228 160 222 169 q 245 149 231 151 q 293 146 260 146 l 347 146 q 358 156 358 146 l 358 207 l 504 207 m 357 388 q 354 480 357 444 q 346 525 351 515 q 286 540 339 540 q 226 526 233 540 q 218 479 221 515 q 215 388 215 443 l 357 388 m 113 889 l 264 889 l 264 731 l 113 731 l 113 889 m 311 889 l 464 889 l 464 731 l 311 731 l 311 889 z "},"è":{"ha":560,"x_min":43,"x_max":518,"o":"m 504 207 l 504 121 q 499 60 504 83 q 481 23 494 36 q 444 5 468 10 q 383 0 421 0 l 258 0 q 156 12 197 0 q 89 58 114 24 q 53 154 64 93 q 43 313 43 215 l 43 374 q 53 526 43 465 q 88 623 63 588 q 154 673 113 658 q 260 688 196 688 l 317 688 q 414 674 375 688 q 476 626 453 660 q 508 535 499 592 q 518 393 518 479 l 518 304 q 510 274 518 281 q 479 267 503 267 l 215 267 q 219 200 215 231 q 228 160 222 169 q 245 149 231 151 q 293 146 260 146 l 347 146 q 358 156 358 146 l 358 207 l 504 207 m 357 388 q 354 480 357 444 q 346 525 351 515 q 286 540 339 540 q 226 526 233 540 q 218 479 221 515 q 215 388 215 443 l 357 388 m 68 942 l 249 942 l 358 731 l 214 731 l 68 942 z "},"æ":{"ha":840,"x_min":31,"x_max":804,"o":"m 783 214 l 783 110 q 779 55 783 76 q 763 22 775 33 q 729 5 750 10 q 675 0 708 0 l 586 0 q 477 8 521 0 q 404 39 433 15 q 317 7 365 18 q 208 -4 269 -4 q 139 6 171 -4 q 83 38 107 15 q 44 97 58 60 q 31 190 31 135 l 31 243 q 37 317 31 282 q 72 378 43 351 q 164 423 101 406 q 339 443 226 440 q 336 502 339 486 q 325 529 333 518 q 307 540 318 538 q 275 542 296 542 l 99 542 l 99 686 l 276 686 q 358 683 321 686 q 424 657 396 679 q 481 683 449 678 q 553 688 514 688 l 603 688 q 685 681 647 688 q 749 647 722 675 q 790 559 775 618 q 804 393 804 500 l 804 304 q 797 274 804 281 q 767 267 790 267 l 508 267 q 512 197 508 226 q 519 160 515 168 q 542 148 525 150 q 586 146 558 146 l 628 146 q 638 156 638 146 l 638 214 l 783 214 m 644 388 q 642 477 644 438 q 632 526 639 517 q 613 538 626 535 q 579 540 599 540 q 519 526 528 540 q 510 475 514 515 q 507 388 507 435 l 644 388 m 339 317 q 263 310 290 315 q 218 296 235 306 q 200 242 200 285 l 200 204 q 201 170 200 182 q 210 153 203 158 q 234 146 218 147 q 278 144 250 144 q 312 146 300 144 q 330 155 324 147 q 338 178 336 163 q 339 224 339 194 l 339 317 z "},"œ":{"ha":878,"x_min":49,"x_max":836,"o":"m 814 214 l 814 110 q 810 55 814 76 q 794 22 806 33 q 760 5 782 10 q 706 0 739 0 l 618 0 q 528 6 568 0 q 460 32 488 11 q 400 4 435 8 q 326 0 365 0 l 267 0 q 176 7 217 0 q 108 44 136 14 q 64 137 79 74 q 49 313 49 200 l 49 374 q 64 549 49 486 q 108 642 79 613 q 176 679 136 672 q 267 686 217 686 l 326 686 q 397 681 365 686 q 456 656 429 676 q 514 682 481 676 q 586 688 547 688 l 635 688 q 716 681 679 688 q 780 647 753 675 q 822 559 807 618 q 836 393 836 500 l 836 304 q 829 274 836 281 q 799 267 822 267 l 543 267 q 546 197 543 226 q 553 160 549 168 q 575 148 558 150 q 618 146 592 146 l 658 146 q 669 156 669 146 l 669 214 l 814 214 m 232 160 q 253 148 238 150 q 292 146 268 146 q 334 148 318 146 q 356 160 350 150 q 363 190 360 167 q 366 243 365 214 q 367 301 367 272 q 368 343 368 329 q 367 385 368 357 q 365 443 367 414 q 362 497 364 472 q 356 526 360 521 q 334 538 350 536 q 292 540 318 540 q 253 538 268 540 q 232 526 238 536 q 226 497 228 521 q 223 443 224 472 q 222 385 222 414 q 221 343 221 357 q 222 301 221 329 q 223 243 222 272 q 226 190 224 214 q 232 160 228 167 m 675 388 q 672 477 675 438 q 664 526 669 517 q 644 538 658 535 q 611 540 631 540 q 554 526 563 540 q 544 475 547 515 q 542 388 542 435 l 675 388 z "}}}
